<?xml version="1.0" encoding="UTF-8" standalone="no"?>
<!-- This is a Stata 16.1 generated SVG file (http://www.stata.com) -->

<svg version="1.1" width="5.50in" height="4.00in" viewBox="0 0 3960 2880" xmlns="http://www.w3.org/2000/svg" xmlns:xlink="http://www.w3.org/1999/xlink">
	<desc>Stata Graph - Graph</desc>
	<rect x="0" y="0" width="3960" height="2880" style="fill:#EAF2F3;stroke:none"/>
	<rect x="0.00" y="0.00" width="3959.88" height="2880.00" style="fill:#FFFFFF"/>
	<rect x="2.88" y="2.88" width="3954.12" height="2874.24" style="fill:none;stroke:#FFFFFF;stroke-width:5.76"/>
	<rect x="130.80" y="100.86" width="3728.22" height="2528.29" style="fill:#FFFFFF"/>
	<rect x="133.68" y="103.74" width="3722.46" height="2522.53" style="fill:none;stroke:#FFFFFF;stroke-width:5.76"/>
	<line x1="2577.71" y1="2629.15" x2="2577.71" y2="100.86" style="stroke:#C10534;stroke-width:8.64"/>
	<circle cx="2390.36" cy="2565.91" r="19.29" style="fill:#000000"/>
	<circle cx="2390.36" cy="2565.91" r="14.97" style="fill:none;stroke:#000000;stroke-width:8.64"/>
	<circle cx="2480.32" cy="2465.80" r="19.29" style="fill:#000000"/>
	<circle cx="2480.32" cy="2465.80" r="14.97" style="fill:none;stroke:#000000;stroke-width:8.64"/>
	<circle cx="2349.39" cy="2365.80" r="19.29" style="fill:#000000"/>
	<circle cx="2349.39" cy="2365.80" r="14.97" style="fill:none;stroke:#000000;stroke-width:8.64"/>
	<circle cx="2418.20" cy="2065.58" r="19.29" style="fill:#000000"/>
	<circle cx="2418.20" cy="2065.58" r="14.97" style="fill:none;stroke:#000000;stroke-width:8.64"/>
	<circle cx="2506.06" cy="1965.46" r="19.29" style="fill:#000000"/>
	<circle cx="2506.06" cy="1965.46" r="14.97" style="fill:none;stroke:#000000;stroke-width:8.64"/>
	<circle cx="2374.76" cy="1865.47" r="19.29" style="fill:#000000"/>
	<circle cx="2374.76" cy="1865.47" r="14.97" style="fill:none;stroke:#000000;stroke-width:8.64"/>
	<circle cx="2382.81" cy="1565.24" r="19.29" style="fill:#000000"/>
	<circle cx="2382.81" cy="1565.24" r="14.97" style="fill:none;stroke:#000000;stroke-width:8.64"/>
	<circle cx="2483.54" cy="1465.12" r="19.29" style="fill:#000000"/>
	<circle cx="2483.54" cy="1465.12" r="14.97" style="fill:none;stroke:#000000;stroke-width:8.64"/>
	<circle cx="2338.26" cy="1365.01" r="19.29" style="fill:#000000"/>
	<circle cx="2338.26" cy="1365.01" r="14.97" style="fill:none;stroke:#000000;stroke-width:8.64"/>
	<circle cx="2418.20" cy="1064.90" r="19.29" style="fill:#000000"/>
	<circle cx="2418.20" cy="1064.90" r="14.97" style="fill:none;stroke:#000000;stroke-width:8.64"/>
	<circle cx="2449.88" cy="964.79" r="19.29" style="fill:#000000"/>
	<circle cx="2449.88" cy="964.79" r="14.97" style="fill:none;stroke:#000000;stroke-width:8.64"/>
	<circle cx="2339.74" cy="864.67" r="19.29" style="fill:#000000"/>
	<circle cx="2339.74" cy="864.67" r="14.97" style="fill:none;stroke:#000000;stroke-width:8.64"/>
	<circle cx="2390.60" cy="564.44" r="19.29" style="fill:#000000"/>
	<circle cx="2390.60" cy="564.44" r="14.97" style="fill:none;stroke:#000000;stroke-width:8.64"/>
	<circle cx="2480.45" cy="464.45" r="19.29" style="fill:#000000"/>
	<circle cx="2480.45" cy="464.45" r="14.97" style="fill:none;stroke:#000000;stroke-width:8.64"/>
	<circle cx="2349.39" cy="364.33" r="19.29" style="fill:#000000"/>
	<circle cx="2349.39" cy="364.33" r="14.97" style="fill:none;stroke:#000000;stroke-width:8.64"/>
	<line x1="2181.71" y1="2565.79" x2="2599.12" y2="2565.79" style="stroke:#000000;stroke-width:8.64"/>
	<line x1="2599.12" y1="2587.82" x2="2599.12" y2="2543.76" stroke-linecap="round" style="stroke:#000000;stroke-width:8.64"/>
	<line x1="2181.71" y1="2587.82" x2="2181.71" y2="2543.76" stroke-linecap="round" style="stroke:#000000;stroke-width:8.64"/>
	<line x1="2325.88" y1="2465.80" x2="2635.01" y2="2465.80" style="stroke:#000000;stroke-width:8.64"/>
	<line x1="2635.01" y1="2487.82" x2="2635.01" y2="2443.77" stroke-linecap="round" style="stroke:#000000;stroke-width:8.64"/>
	<line x1="2325.88" y1="2487.82" x2="2325.88" y2="2443.77" stroke-linecap="round" style="stroke:#000000;stroke-width:8.64"/>
	<line x1="2194.58" y1="2365.68" x2="2504.33" y2="2365.68" style="stroke:#000000;stroke-width:8.64"/>
	<line x1="2504.33" y1="2387.71" x2="2504.33" y2="2343.65" stroke-linecap="round" style="stroke:#000000;stroke-width:8.64"/>
	<line x1="2194.58" y1="2387.71" x2="2194.58" y2="2343.65" stroke-linecap="round" style="stroke:#000000;stroke-width:8.64"/>
	<line x1="2205.84" y1="2065.45" x2="2630.55" y2="2065.45" style="stroke:#000000;stroke-width:8.64"/>
	<line x1="2630.55" y1="2087.48" x2="2630.55" y2="2043.42" stroke-linecap="round" style="stroke:#000000;stroke-width:8.64"/>
	<line x1="2205.84" y1="2087.48" x2="2205.84" y2="2043.42" stroke-linecap="round" style="stroke:#000000;stroke-width:8.64"/>
	<line x1="2350.01" y1="1965.46" x2="2662.36" y2="1965.46" style="stroke:#000000;stroke-width:8.64"/>
	<line x1="2662.36" y1="1987.49" x2="2662.36" y2="1943.43" stroke-linecap="round" style="stroke:#000000;stroke-width:8.64"/>
	<line x1="2350.01" y1="1987.49" x2="2350.01" y2="1943.43" stroke-linecap="round" style="stroke:#000000;stroke-width:8.64"/>
	<line x1="2216.61" y1="1865.34" x2="2532.91" y2="1865.34" style="stroke:#000000;stroke-width:8.64"/>
	<line x1="2532.91" y1="1887.37" x2="2532.91" y2="1843.31" stroke-linecap="round" style="stroke:#000000;stroke-width:8.64"/>
	<line x1="2216.61" y1="1887.37" x2="2216.61" y2="1843.31" stroke-linecap="round" style="stroke:#000000;stroke-width:8.64"/>
	<line x1="2172.55" y1="1565.12" x2="2593.30" y2="1565.12" style="stroke:#000000;stroke-width:8.64"/>
	<line x1="2593.30" y1="1587.14" x2="2593.30" y2="1543.09" stroke-linecap="round" style="stroke:#000000;stroke-width:8.64"/>
	<line x1="2172.55" y1="1587.14" x2="2172.55" y2="1543.09" stroke-linecap="round" style="stroke:#000000;stroke-width:8.64"/>
	<line x1="2326.87" y1="1465.12" x2="2640.21" y2="1465.12" style="stroke:#000000;stroke-width:8.64"/>
	<line x1="2640.21" y1="1487.15" x2="2640.21" y2="1443.09" stroke-linecap="round" style="stroke:#000000;stroke-width:8.64"/>
	<line x1="2326.87" y1="1487.15" x2="2326.87" y2="1443.09" stroke-linecap="round" style="stroke:#000000;stroke-width:8.64"/>
	<line x1="2181.71" y1="1365.01" x2="2494.92" y2="1365.01" style="stroke:#000000;stroke-width:8.64"/>
	<line x1="2494.92" y1="1387.03" x2="2494.92" y2="1342.98" stroke-linecap="round" style="stroke:#000000;stroke-width:8.64"/>
	<line x1="2181.71" y1="1387.03" x2="2181.71" y2="1342.98" stroke-linecap="round" style="stroke:#000000;stroke-width:8.64"/>
	<line x1="2197.06" y1="1064.78" x2="2639.46" y2="1064.78" style="stroke:#000000;stroke-width:8.64"/>
	<line x1="2639.46" y1="1086.81" x2="2639.46" y2="1042.75" stroke-linecap="round" style="stroke:#000000;stroke-width:8.64"/>
	<line x1="2197.06" y1="1086.81" x2="2197.06" y2="1042.75" stroke-linecap="round" style="stroke:#000000;stroke-width:8.64"/>
	<line x1="2281.08" y1="964.66" x2="2618.80" y2="964.66" style="stroke:#000000;stroke-width:8.64"/>
	<line x1="2618.80" y1="986.69" x2="2618.80" y2="942.63" stroke-linecap="round" style="stroke:#000000;stroke-width:8.64"/>
	<line x1="2281.08" y1="986.69" x2="2281.08" y2="942.63" stroke-linecap="round" style="stroke:#000000;stroke-width:8.64"/>
	<line x1="2172.18" y1="864.67" x2="2507.42" y2="864.67" style="stroke:#000000;stroke-width:8.64"/>
	<line x1="2507.42" y1="886.70" x2="2507.42" y2="842.64" stroke-linecap="round" style="stroke:#000000;stroke-width:8.64"/>
	<line x1="2172.18" y1="886.70" x2="2172.18" y2="842.64" stroke-linecap="round" style="stroke:#000000;stroke-width:8.64"/>
	<line x1="2181.96" y1="564.44" x2="2599.37" y2="564.44" style="stroke:#000000;stroke-width:8.64"/>
	<line x1="2599.37" y1="586.47" x2="2599.37" y2="542.41" stroke-linecap="round" style="stroke:#000000;stroke-width:8.64"/>
	<line x1="2181.96" y1="586.47" x2="2181.96" y2="542.41" stroke-linecap="round" style="stroke:#000000;stroke-width:8.64"/>
	<line x1="2326.01" y1="464.32" x2="2635.13" y2="464.32" style="stroke:#000000;stroke-width:8.64"/>
	<line x1="2635.13" y1="486.35" x2="2635.13" y2="442.30" stroke-linecap="round" style="stroke:#000000;stroke-width:8.64"/>
	<line x1="2326.01" y1="486.35" x2="2326.01" y2="442.30" stroke-linecap="round" style="stroke:#000000;stroke-width:8.64"/>
	<line x1="2194.46" y1="364.33" x2="2504.33" y2="364.33" style="stroke:#000000;stroke-width:8.64"/>
	<line x1="2504.33" y1="386.36" x2="2504.33" y2="342.30" stroke-linecap="round" style="stroke:#000000;stroke-width:8.64"/>
	<line x1="2194.46" y1="386.36" x2="2194.46" y2="342.30" stroke-linecap="round" style="stroke:#000000;stroke-width:8.64"/>
	<text x="236.12" y="2586.83" style="font-family:'Helvetica';font-size:60.02px;fill:#000000"></text>
	<text x="236.12" y="2486.83" style="font-family:'Helvetica';font-size:60.02px;fill:#000000"></text>
	<text x="236.12" y="2386.72" style="font-family:'Helvetica';font-size:60.02px;fill:#000000"></text>
	<text x="236.12" y="2286.72" style="font-family:'Helvetica';font-weight:bold;font-size:60.02px;fill:#000000">Non-proportional hazards fitted (N=9334392)</text>
	<text x="236.12" y="2186.61" style="font-family:'Helvetica';font-size:60.02px;fill:#000000"></text>
	<text x="236.12" y="2086.49" style="font-family:'Helvetica';font-size:60.02px;fill:#000000"></text>
	<text x="236.12" y="1986.50" style="font-family:'Helvetica';font-size:60.02px;fill:#000000"></text>
	<text x="236.12" y="1886.38" style="font-family:'Helvetica';font-size:60.02px;fill:#000000"></text>
	<text x="236.12" y="1786.26" style="font-family:'Helvetica';font-weight:bold;font-size:60.02px;fill:#000000">Participants with at least 12 months registration at GP  (N=8585489)</text>
	<text x="236.12" y="1686.27" style="font-family:'Helvetica';font-size:60.02px;fill:#000000"></text>
	<text x="236.12" y="1586.15" style="font-family:'Helvetica';font-size:60.02px;fill:#000000"></text>
	<text x="236.12" y="1486.16" style="font-family:'Helvetica';font-size:60.02px;fill:#000000"></text>
	<text x="236.12" y="1386.04" style="font-family:'Helvetica';font-size:60.02px;fill:#000000"></text>
	<text x="236.12" y="1285.93" style="font-family:'Helvetica';font-weight:bold;font-size:60.02px;fill:#000000">Underlying timescale in the cox model revised to age   (N=9334392)</text>
	<text x="236.12" y="1185.93" style="font-family:'Helvetica';font-size:60.02px;fill:#000000"></text>
	<text x="236.12" y="1085.82" style="font-family:'Helvetica';font-size:60.02px;fill:#000000"></text>
	<text x="236.12" y="985.70" style="font-family:'Helvetica';font-size:60.02px;fill:#000000"></text>
	<text x="236.12" y="885.71" style="font-family:'Helvetica';font-size:60.02px;fill:#000000"></text>
	<text x="236.12" y="785.59" style="font-family:'Helvetica';font-weight:bold;font-size:60.02px;fill:#000000">Participants with complete BMI and smoking data  (N=7665303)</text>
	<text x="236.12" y="685.60" style="font-family:'Helvetica';font-size:60.02px;fill:#000000"></text>
	<text x="236.12" y="585.48" style="font-family:'Helvetica';font-size:60.02px;fill:#000000"></text>
	<text x="236.12" y="485.36" style="font-family:'Helvetica';font-size:60.02px;fill:#000000"></text>
	<text x="236.12" y="385.37" style="font-family:'Helvetica';font-size:60.02px;fill:#000000"></text>
	<text x="236.12" y="285.25" style="font-family:'Helvetica';font-weight:bold;font-size:60.02px;fill:#000000">Fully adjusted result  (N=9334392)</text>
	<text x="236.12" y="185.26" style="font-family:'Helvetica';font-size:60.02px;fill:#000000"></text>
	<text x="300.84" y="2586.83" style="font-family:'Helvetica';font-size:60.02px;fill:#000000">Children aged 0-11 years and ≥12 years</text>
	<text x="300.84" y="2486.83" style="font-family:'Helvetica';font-size:60.02px;fill:#000000">Only children aged ≥12 years</text>
	<text x="300.84" y="2386.72" style="font-family:'Helvetica';font-size:60.02px;fill:#000000">Only children aged 0-11 years</text>
	<text x="300.84" y="2086.49" style="font-family:'Helvetica';font-size:60.02px;fill:#000000">Children aged 0-11 years and ≥12 years</text>
	<text x="300.84" y="1986.50" style="font-family:'Helvetica';font-size:60.02px;fill:#000000">Only children aged ≥12 years</text>
	<text x="300.84" y="1886.38" style="font-family:'Helvetica';font-size:60.02px;fill:#000000">Only children aged 0-11 years</text>
	<text x="300.84" y="1586.15" style="font-family:'Helvetica';font-size:60.02px;fill:#000000">Children aged 0-11 years and ≥12 years</text>
	<text x="300.84" y="1486.16" style="font-family:'Helvetica';font-size:60.02px;fill:#000000">Only children aged ≥12 years</text>
	<text x="300.84" y="1386.04" style="font-family:'Helvetica';font-size:60.02px;fill:#000000">Only children aged 0-11 years</text>
	<text x="300.84" y="1085.82" style="font-family:'Helvetica';font-size:60.02px;fill:#000000">Children aged 0-11 years and ≥12 years</text>
	<text x="300.84" y="985.70" style="font-family:'Helvetica';font-size:60.02px;fill:#000000">Only children aged ≥12 years</text>
	<text x="300.84" y="885.71" style="font-family:'Helvetica';font-size:60.02px;fill:#000000">Only children aged 0-11 years</text>
	<text x="300.84" y="585.48" style="font-family:'Helvetica';font-size:60.02px;fill:#000000">Children aged 0-11 years and ≥12 years</text>
	<text x="300.84" y="485.36" style="font-family:'Helvetica';font-size:60.02px;fill:#000000">Only children aged ≥12 years</text>
	<text x="300.84" y="385.37" style="font-family:'Helvetica';font-size:60.02px;fill:#000000">Only children aged 0-11 years</text>
	<text x="3242.62" y="2586.83" style="font-family:'Helvetica';font-size:60.02px;fill:#000000">0.76 (0.56-1.03)</text>
	<text x="3242.62" y="2486.83" style="font-family:'Helvetica';font-size:60.02px;fill:#000000">0.87 (0.69-1.09)</text>
	<text x="3242.62" y="2386.72" style="font-family:'Helvetica';font-size:60.02px;fill:#000000">0.71 (0.57-0.90)</text>
	<text x="3242.62" y="2086.49" style="font-family:'Helvetica';font-size:60.02px;fill:#000000">0.79 (0.58-1.08)</text>
	<text x="3242.62" y="1986.50" style="font-family:'Helvetica';font-size:60.02px;fill:#000000">0.90 (0.72-1.13)</text>
	<text x="3242.62" y="1886.38" style="font-family:'Helvetica';font-size:60.02px;fill:#000000">0.74 (0.59-0.94)</text>
	<text x="3242.62" y="1586.15" style="font-family:'Helvetica';font-size:60.02px;fill:#000000">0.75 (0.55-1.02)</text>
	<text x="3242.62" y="1486.16" style="font-family:'Helvetica';font-size:60.02px;fill:#000000">0.87 (0.69-1.10)</text>
	<text x="3242.62" y="1386.04" style="font-family:'Helvetica';font-size:60.02px;fill:#000000">0.70 (0.56-0.89)</text>
	<text x="3242.62" y="1085.82" style="font-family:'Helvetica';font-size:60.02px;fill:#000000">0.79 (0.57-1.10)</text>
	<text x="3242.62" y="985.70" style="font-family:'Helvetica';font-size:60.02px;fill:#000000">0.83 (0.65-1.06)</text>
	<text x="3242.62" y="885.71" style="font-family:'Helvetica';font-size:60.02px;fill:#000000">0.70 (0.55-0.90)</text>
	<text x="3242.62" y="585.48" style="font-family:'Helvetica';font-size:60.02px;fill:#000000">0.76 (0.56-1.03)</text>
	<text x="3242.62" y="485.36" style="font-family:'Helvetica';font-size:60.02px;fill:#000000">0.87 (0.69-1.09)</text>
	<text x="3242.62" y="385.37" style="font-family:'Helvetica';font-size:60.02px;fill:#000000">0.71 (0.57-0.90)</text>
	<text x="3242.62" y="2586.83" style="font-family:'Helvetica';font-size:60.02px;fill:#000000"></text>
	<text x="3242.62" y="2486.83" style="font-family:'Helvetica';font-size:60.02px;fill:#000000"></text>
	<text x="3242.62" y="2386.72" style="font-family:'Helvetica';font-size:60.02px;fill:#000000"></text>
	<text x="3242.62" y="2286.72" style="font-family:'Helvetica';font-size:60.02px;fill:#000000"></text>
	<text x="3242.62" y="2186.61" style="font-family:'Helvetica';font-size:60.02px;fill:#000000"></text>
	<text x="3242.62" y="2086.49" style="font-family:'Helvetica';font-size:60.02px;fill:#000000"></text>
	<text x="3242.62" y="1986.50" style="font-family:'Helvetica';font-size:60.02px;fill:#000000"></text>
	<text x="3242.62" y="1886.38" style="font-family:'Helvetica';font-size:60.02px;fill:#000000"></text>
	<text x="3242.62" y="1786.26" style="font-family:'Helvetica';font-size:60.02px;fill:#000000"></text>
	<text x="3242.62" y="1686.27" style="font-family:'Helvetica';font-size:60.02px;fill:#000000"></text>
	<text x="3242.62" y="1586.15" style="font-family:'Helvetica';font-size:60.02px;fill:#000000"></text>
	<text x="3242.62" y="1486.16" style="font-family:'Helvetica';font-size:60.02px;fill:#000000"></text>
	<text x="3242.62" y="1386.04" style="font-family:'Helvetica';font-size:60.02px;fill:#000000"></text>
	<text x="3242.62" y="1285.93" style="font-family:'Helvetica';font-size:60.02px;fill:#000000"></text>
	<text x="3242.62" y="1185.93" style="font-family:'Helvetica';font-size:60.02px;fill:#000000"></text>
	<text x="3242.62" y="1085.82" style="font-family:'Helvetica';font-size:60.02px;fill:#000000"></text>
	<text x="3242.62" y="985.70" style="font-family:'Helvetica';font-size:60.02px;fill:#000000"></text>
	<text x="3242.62" y="885.71" style="font-family:'Helvetica';font-size:60.02px;fill:#000000"></text>
	<text x="3242.62" y="785.59" style="font-family:'Helvetica';font-size:60.02px;fill:#000000"></text>
	<text x="3242.62" y="685.60" style="font-family:'Helvetica';font-size:60.02px;fill:#000000"></text>
	<text x="3242.62" y="585.48" style="font-family:'Helvetica';font-size:60.02px;fill:#000000"></text>
	<text x="3242.62" y="485.36" style="font-family:'Helvetica';font-size:60.02px;fill:#000000"></text>
	<text x="3242.62" y="385.37" style="font-family:'Helvetica';font-size:60.02px;fill:#000000"></text>
	<text x="3242.62" y="285.25" style="font-family:'Helvetica';font-size:60.02px;fill:#000000"></text>
	<text x="3242.62" y="185.26" style="font-family:'Helvetica';font-size:60.02px;fill:#000000"></text>
	<text x="2002.89" y="2887.05" style="font-family:'Helvetica';font-size:60.02px;fill:#000000" text-anchor="middle">Lower risk in those living with children</text>
	<text x="3379.12" y="2887.05" style="font-family:'Helvetica';font-size:60.02px;fill:#000000" text-anchor="middle">Higher risk in those living with children</text>
	<line x1="130.80" y1="2629.15" x2="130.80" y2="100.86" style="stroke:#FFFFFF;stroke-width:5.76"/>
	<line x1="130.80" y1="2629.15" x2="3859.02" y2="2629.15" style="stroke:#000000;stroke-width:5.76"/>
	<line x1="2106.60" y1="2629.15" x2="2106.60" y2="2669.25" style="stroke:#000000;stroke-width:5.76"/>
	<text x="2106.60" y="2731.12" style="font-family:'Helvetica';font-size:60.02px;fill:#000000" text-anchor="middle">.5</text>
	<line x1="2577.71" y1="2629.15" x2="2577.71" y2="2669.25" style="stroke:#000000;stroke-width:5.76"/>
	<text x="2577.71" y="2731.12" style="font-family:'Helvetica';font-size:60.02px;fill:#000000" text-anchor="middle">1</text>
	<line x1="3048.95" y1="2629.15" x2="3048.95" y2="2669.25" style="stroke:#000000;stroke-width:5.76"/>
	<text x="3048.95" y="2731.12" style="font-family:'Helvetica';font-size:60.02px;fill:#000000" text-anchor="middle">2</text>
</svg>
