<?xml version="1.0" encoding="UTF-8" standalone="no"?>
<!-- This is a Stata 16.1 generated SVG file (http://www.stata.com) -->

<svg version="1.1" width="5.50in" height="4.00in" viewBox="0 0 3960 2880" xmlns="http://www.w3.org/2000/svg" xmlns:xlink="http://www.w3.org/1999/xlink">
	<desc>Stata Graph - Graph</desc>
	<rect x="0" y="0" width="3960" height="2880" style="fill:#EAF2F3;stroke:none"/>
	<rect x="0.00" y="0.00" width="3959.88" height="2880.00" style="fill:#FFFFFF"/>
	<rect x="2.88" y="2.88" width="3954.12" height="2874.24" style="fill:none;stroke:#FFFFFF;stroke-width:5.76"/>
	<rect x="130.80" y="100.86" width="3728.22" height="2528.29" style="fill:#FFFFFF"/>
	<rect x="133.68" y="103.74" width="3722.46" height="2522.53" style="fill:none;stroke:#FFFFFF;stroke-width:5.76"/>
	<line x1="2577.71" y1="2629.15" x2="2577.71" y2="100.86" style="stroke:#C10534;stroke-width:8.64"/>
	<circle cx="3030.76" cy="2565.91" r="19.29" style="fill:#000000"/>
	<circle cx="3030.76" cy="2565.91" r="14.97" style="fill:none;stroke:#000000;stroke-width:8.64"/>
	<circle cx="2514.35" cy="2439.56" r="19.29" style="fill:#000000"/>
	<circle cx="2514.35" cy="2439.56" r="14.97" style="fill:none;stroke:#000000;stroke-width:8.64"/>
	<circle cx="2710.37" cy="2313.08" r="19.29" style="fill:#000000"/>
	<circle cx="2710.37" cy="2313.08" r="14.97" style="fill:none;stroke:#000000;stroke-width:8.64"/>
	<circle cx="2997.72" cy="1933.90" r="19.29" style="fill:#000000"/>
	<circle cx="2997.72" cy="1933.90" r="14.97" style="fill:none;stroke:#000000;stroke-width:8.64"/>
	<circle cx="2607.66" cy="1807.43" r="19.29" style="fill:#000000"/>
	<circle cx="2607.66" cy="1807.43" r="14.97" style="fill:none;stroke:#000000;stroke-width:8.64"/>
	<circle cx="2768.66" cy="1681.07" r="19.29" style="fill:#000000"/>
	<circle cx="2768.66" cy="1681.07" r="14.97" style="fill:none;stroke:#000000;stroke-width:8.64"/>
	<circle cx="2972.10" cy="1301.89" r="19.29" style="fill:#000000"/>
	<circle cx="2972.10" cy="1301.89" r="14.97" style="fill:none;stroke:#000000;stroke-width:8.64"/>
	<circle cx="2623.38" cy="1175.41" r="19.29" style="fill:#000000"/>
	<circle cx="2623.38" cy="1175.41" r="14.97" style="fill:none;stroke:#000000;stroke-width:8.64"/>
	<circle cx="2729.80" cy="1049.06" r="19.29" style="fill:#000000"/>
	<circle cx="2729.80" cy="1049.06" r="14.97" style="fill:none;stroke:#000000;stroke-width:8.64"/>
	<circle cx="3001.18" cy="669.88" r="19.29" style="fill:#000000"/>
	<circle cx="3001.18" cy="669.88" r="14.97" style="fill:none;stroke:#000000;stroke-width:8.64"/>
	<circle cx="2602.96" cy="543.40" r="19.29" style="fill:#000000"/>
	<circle cx="2602.96" cy="543.40" r="14.97" style="fill:none;stroke:#000000;stroke-width:8.64"/>
	<circle cx="2758.14" cy="417.05" r="19.29" style="fill:#000000"/>
	<circle cx="2758.14" cy="417.05" r="14.97" style="fill:none;stroke:#000000;stroke-width:8.64"/>
	<line x1="2676.09" y1="2565.79" x2="3385.68" y2="2565.79" style="stroke:#000000;stroke-width:8.64"/>
	<line x1="3385.68" y1="2587.82" x2="3385.68" y2="2543.76" stroke-linecap="round" style="stroke:#000000;stroke-width:8.64"/>
	<line x1="2676.09" y1="2587.82" x2="2676.09" y2="2543.76" stroke-linecap="round" style="stroke:#000000;stroke-width:8.64"/>
	<line x1="2091.38" y1="2439.44" x2="2937.33" y2="2439.44" style="stroke:#000000;stroke-width:8.64"/>
	<line x1="2937.33" y1="2461.46" x2="2937.33" y2="2417.41" stroke-linecap="round" style="stroke:#000000;stroke-width:8.64"/>
	<line x1="2091.38" y1="2461.46" x2="2091.38" y2="2417.41" stroke-linecap="round" style="stroke:#000000;stroke-width:8.64"/>
	<line x1="2421.05" y1="2313.08" x2="2999.82" y2="2313.08" style="stroke:#000000;stroke-width:8.64"/>
	<line x1="2999.82" y1="2335.11" x2="2999.82" y2="2291.06" stroke-linecap="round" style="stroke:#000000;stroke-width:8.64"/>
	<line x1="2421.05" y1="2335.11" x2="2421.05" y2="2291.06" stroke-linecap="round" style="stroke:#000000;stroke-width:8.64"/>
	<line x1="2643.67" y1="1933.78" x2="3351.77" y2="1933.78" style="stroke:#000000;stroke-width:8.64"/>
	<line x1="3351.77" y1="1955.81" x2="3351.77" y2="1911.75" stroke-linecap="round" style="stroke:#000000;stroke-width:8.64"/>
	<line x1="2643.67" y1="1955.81" x2="2643.67" y2="1911.75" stroke-linecap="round" style="stroke:#000000;stroke-width:8.64"/>
	<line x1="2219.95" y1="1807.43" x2="2995.49" y2="1807.43" style="stroke:#000000;stroke-width:8.64"/>
	<line x1="2995.49" y1="1829.45" x2="2995.49" y2="1785.40" stroke-linecap="round" style="stroke:#000000;stroke-width:8.64"/>
	<line x1="2219.95" y1="1829.45" x2="2219.95" y2="1785.40" stroke-linecap="round" style="stroke:#000000;stroke-width:8.64"/>
	<line x1="2493.56" y1="1681.07" x2="3043.88" y2="1681.07" style="stroke:#000000;stroke-width:8.64"/>
	<line x1="3043.88" y1="1703.10" x2="3043.88" y2="1659.04" stroke-linecap="round" style="stroke:#000000;stroke-width:8.64"/>
	<line x1="2493.56" y1="1703.10" x2="2493.56" y2="1659.04" stroke-linecap="round" style="stroke:#000000;stroke-width:8.64"/>
	<line x1="2605.31" y1="1301.77" x2="3339.15" y2="1301.77" style="stroke:#000000;stroke-width:8.64"/>
	<line x1="3339.15" y1="1323.80" x2="3339.15" y2="1279.74" stroke-linecap="round" style="stroke:#000000;stroke-width:8.64"/>
	<line x1="2605.31" y1="1323.80" x2="2605.31" y2="1279.74" stroke-linecap="round" style="stroke:#000000;stroke-width:8.64"/>
	<line x1="2234.06" y1="1175.41" x2="3012.82" y2="1175.41" style="stroke:#000000;stroke-width:8.64"/>
	<line x1="3012.82" y1="1197.44" x2="3012.82" y2="1153.39" stroke-linecap="round" style="stroke:#000000;stroke-width:8.64"/>
	<line x1="2234.06" y1="1197.44" x2="2234.06" y2="1153.39" stroke-linecap="round" style="stroke:#000000;stroke-width:8.64"/>
	<line x1="2445.55" y1="1048.94" x2="3014.18" y2="1048.94" style="stroke:#000000;stroke-width:8.64"/>
	<line x1="3014.18" y1="1070.97" x2="3014.18" y2="1026.91" stroke-linecap="round" style="stroke:#000000;stroke-width:8.64"/>
	<line x1="2445.55" y1="1070.97" x2="2445.55" y2="1026.91" stroke-linecap="round" style="stroke:#000000;stroke-width:8.64"/>
	<line x1="2647.63" y1="669.76" x2="3354.99" y2="669.76" style="stroke:#000000;stroke-width:8.64"/>
	<line x1="3354.99" y1="691.78" x2="3354.99" y2="647.73" stroke-linecap="round" style="stroke:#000000;stroke-width:8.64"/>
	<line x1="2647.63" y1="691.78" x2="2647.63" y2="647.73" stroke-linecap="round" style="stroke:#000000;stroke-width:8.64"/>
	<line x1="2215.00" y1="543.40" x2="2991.16" y2="543.40" style="stroke:#000000;stroke-width:8.64"/>
	<line x1="2991.16" y1="565.43" x2="2991.16" y2="521.38" stroke-linecap="round" style="stroke:#000000;stroke-width:8.64"/>
	<line x1="2215.00" y1="565.43" x2="2215.00" y2="521.38" stroke-linecap="round" style="stroke:#000000;stroke-width:8.64"/>
	<line x1="2483.17" y1="416.93" x2="3033.11" y2="416.93" style="stroke:#000000;stroke-width:8.64"/>
	<line x1="3033.11" y1="438.95" x2="3033.11" y2="394.90" stroke-linecap="round" style="stroke:#000000;stroke-width:8.64"/>
	<line x1="2483.17" y1="438.95" x2="2483.17" y2="394.90" stroke-linecap="round" style="stroke:#000000;stroke-width:8.64"/>
	<text x="236.12" y="2586.83" style="font-family:'Helvetica';font-size:60.02px;fill:#000000"></text>
	<text x="236.12" y="2460.47" style="font-family:'Helvetica';font-size:60.02px;fill:#000000"></text>
	<text x="236.12" y="2334.12" style="font-family:'Helvetica';font-size:60.02px;fill:#000000"></text>
	<text x="236.12" y="2207.65" style="font-family:'Helvetica';font-weight:bold;font-size:60.02px;fill:#000000">Participants with at least 12 months registration at GP  (N=2651492)</text>
	<text x="236.12" y="2081.29" style="font-family:'Helvetica';font-size:60.02px;fill:#000000"></text>
	<text x="236.12" y="1954.82" style="font-family:'Helvetica';font-size:60.02px;fill:#000000"></text>
	<text x="236.12" y="1828.46" style="font-family:'Helvetica';font-size:60.02px;fill:#000000"></text>
	<text x="236.12" y="1702.11" style="font-family:'Helvetica';font-size:60.02px;fill:#000000"></text>
	<text x="236.12" y="1575.63" style="font-family:'Helvetica';font-weight:bold;font-size:60.02px;fill:#000000">Underlying timescale in the cox model revised to age   (N=2706505)</text>
	<text x="236.12" y="1449.28" style="font-family:'Helvetica';font-size:60.02px;fill:#000000"></text>
	<text x="236.12" y="1322.81" style="font-family:'Helvetica';font-size:60.02px;fill:#000000"></text>
	<text x="236.12" y="1196.45" style="font-family:'Helvetica';font-size:60.02px;fill:#000000"></text>
	<text x="236.12" y="1069.98" style="font-family:'Helvetica';font-size:60.02px;fill:#000000"></text>
	<text x="236.12" y="943.62" style="font-family:'Helvetica';font-weight:bold;font-size:60.02px;fill:#000000">Participants with complete BMI and smoking data  (N=2539976)</text>
	<text x="236.12" y="817.27" style="font-family:'Helvetica';font-size:60.02px;fill:#000000"></text>
	<text x="236.12" y="690.79" style="font-family:'Helvetica';font-size:60.02px;fill:#000000"></text>
	<text x="236.12" y="564.44" style="font-family:'Helvetica';font-size:60.02px;fill:#000000"></text>
	<text x="236.12" y="437.96" style="font-family:'Helvetica';font-size:60.02px;fill:#000000"></text>
	<text x="236.12" y="311.61" style="font-family:'Helvetica';font-weight:bold;font-size:60.02px;fill:#000000">Fully adjusted result  (N=2706505)</text>
	<text x="236.12" y="185.26" style="font-family:'Helvetica';font-size:60.02px;fill:#000000"></text>
	<text x="300.84" y="2586.83" style="font-family:'Helvetica';font-size:60.02px;fill:#000000">Children aged 0-11 years and ≥12 years</text>
	<text x="300.84" y="2460.47" style="font-family:'Helvetica';font-size:60.02px;fill:#000000">Only children aged ≥12 years</text>
	<text x="300.84" y="2334.12" style="font-family:'Helvetica';font-size:60.02px;fill:#000000">Only children aged 0-11 years</text>
	<text x="300.84" y="1954.82" style="font-family:'Helvetica';font-size:60.02px;fill:#000000">Children aged 0-11 years and ≥12 years</text>
	<text x="300.84" y="1828.46" style="font-family:'Helvetica';font-size:60.02px;fill:#000000">Only children aged ≥12 years</text>
	<text x="300.84" y="1702.11" style="font-family:'Helvetica';font-size:60.02px;fill:#000000">Only children aged 0-11 years</text>
	<text x="300.84" y="1322.81" style="font-family:'Helvetica';font-size:60.02px;fill:#000000">Children aged 0-11 years and ≥12 years</text>
	<text x="300.84" y="1196.45" style="font-family:'Helvetica';font-size:60.02px;fill:#000000">Only children aged ≥12 years</text>
	<text x="300.84" y="1069.98" style="font-family:'Helvetica';font-size:60.02px;fill:#000000">Only children aged 0-11 years</text>
	<text x="300.84" y="690.79" style="font-family:'Helvetica';font-size:60.02px;fill:#000000">Children aged 0-11 years and ≥12 years</text>
	<text x="300.84" y="564.44" style="font-family:'Helvetica';font-size:60.02px;fill:#000000">Only children aged ≥12 years</text>
	<text x="300.84" y="437.96" style="font-family:'Helvetica';font-size:60.02px;fill:#000000">Only children aged 0-11 years</text>
	<text x="3242.62" y="2586.83" style="font-family:'Helvetica';font-size:60.02px;fill:#000000">1.95 (1.16-3.28)</text>
	<text x="3242.62" y="2460.47" style="font-family:'Helvetica';font-size:60.02px;fill:#000000">0.91 (0.49-1.70)</text>
	<text x="3242.62" y="2334.12" style="font-family:'Helvetica';font-size:60.02px;fill:#000000">1.22 (0.79-1.86)</text>
	<text x="3242.62" y="1954.82" style="font-family:'Helvetica';font-size:60.02px;fill:#000000">1.85 (1.10-3.12)</text>
	<text x="3242.62" y="1828.46" style="font-family:'Helvetica';font-size:60.02px;fill:#000000">1.05 (0.59-1.85)</text>
	<text x="3242.62" y="1702.11" style="font-family:'Helvetica';font-size:60.02px;fill:#000000">1.32 (0.88-1.99)</text>
	<text x="3242.62" y="1322.81" style="font-family:'Helvetica';font-size:60.02px;fill:#000000">1.79 (1.04-3.06)</text>
	<text x="3242.62" y="1196.45" style="font-family:'Helvetica';font-size:60.02px;fill:#000000">1.07 (0.60-1.90)</text>
	<text x="3242.62" y="1069.98" style="font-family:'Helvetica';font-size:60.02px;fill:#000000">1.25 (0.82-1.90)</text>
	<text x="3242.62" y="690.79" style="font-family:'Helvetica';font-size:60.02px;fill:#000000">1.86 (1.11-3.14)</text>
	<text x="3242.62" y="564.44" style="font-family:'Helvetica';font-size:60.02px;fill:#000000">1.04 (0.59-1.84)</text>
	<text x="3242.62" y="437.96" style="font-family:'Helvetica';font-size:60.02px;fill:#000000">1.30 (0.87-1.95)</text>
	<text x="3242.62" y="2586.83" style="font-family:'Helvetica';font-size:60.02px;fill:#000000"></text>
	<text x="3242.62" y="2460.47" style="font-family:'Helvetica';font-size:60.02px;fill:#000000"></text>
	<text x="3242.62" y="2334.12" style="font-family:'Helvetica';font-size:60.02px;fill:#000000"></text>
	<text x="3242.62" y="2207.65" style="font-family:'Helvetica';font-size:60.02px;fill:#000000"></text>
	<text x="3242.62" y="2081.29" style="font-family:'Helvetica';font-size:60.02px;fill:#000000"></text>
	<text x="3242.62" y="1954.82" style="font-family:'Helvetica';font-size:60.02px;fill:#000000"></text>
	<text x="3242.62" y="1828.46" style="font-family:'Helvetica';font-size:60.02px;fill:#000000"></text>
	<text x="3242.62" y="1702.11" style="font-family:'Helvetica';font-size:60.02px;fill:#000000"></text>
	<text x="3242.62" y="1575.63" style="font-family:'Helvetica';font-size:60.02px;fill:#000000"></text>
	<text x="3242.62" y="1449.28" style="font-family:'Helvetica';font-size:60.02px;fill:#000000"></text>
	<text x="3242.62" y="1322.81" style="font-family:'Helvetica';font-size:60.02px;fill:#000000"></text>
	<text x="3242.62" y="1196.45" style="font-family:'Helvetica';font-size:60.02px;fill:#000000"></text>
	<text x="3242.62" y="1069.98" style="font-family:'Helvetica';font-size:60.02px;fill:#000000"></text>
	<text x="3242.62" y="943.62" style="font-family:'Helvetica';font-size:60.02px;fill:#000000"></text>
	<text x="3242.62" y="817.27" style="font-family:'Helvetica';font-size:60.02px;fill:#000000"></text>
	<text x="3242.62" y="690.79" style="font-family:'Helvetica';font-size:60.02px;fill:#000000"></text>
	<text x="3242.62" y="564.44" style="font-family:'Helvetica';font-size:60.02px;fill:#000000"></text>
	<text x="3242.62" y="437.96" style="font-family:'Helvetica';font-size:60.02px;fill:#000000"></text>
	<text x="3242.62" y="311.61" style="font-family:'Helvetica';font-size:60.02px;fill:#000000"></text>
	<text x="3242.62" y="185.26" style="font-family:'Helvetica';font-size:60.02px;fill:#000000"></text>
	<text x="2002.89" y="2966.13" style="font-family:'Helvetica';font-size:60.02px;fill:#000000" text-anchor="middle">Lower risk in those living with children</text>
	<text x="3379.12" y="2966.13" style="font-family:'Helvetica';font-size:60.02px;fill:#000000" text-anchor="middle">Higher risk in those living with children</text>
	<line x1="130.80" y1="2629.15" x2="130.80" y2="100.86" style="stroke:#FFFFFF;stroke-width:5.76"/>
	<line x1="130.80" y1="2629.15" x2="3859.02" y2="2629.15" style="stroke:#000000;stroke-width:5.76"/>
	<line x1="2106.60" y1="2629.15" x2="2106.60" y2="2669.25" style="stroke:#000000;stroke-width:5.76"/>
	<text x="2106.60" y="2731.12" style="font-family:'Helvetica';font-size:60.02px;fill:#000000" text-anchor="middle">.5</text>
	<line x1="2577.71" y1="2629.15" x2="2577.71" y2="2669.25" style="stroke:#000000;stroke-width:5.76"/>
	<text x="2577.71" y="2731.12" style="font-family:'Helvetica';font-size:60.02px;fill:#000000" text-anchor="middle">1</text>
	<line x1="3048.95" y1="2629.15" x2="3048.95" y2="2669.25" style="stroke:#000000;stroke-width:5.76"/>
	<text x="3048.95" y="2731.12" style="font-family:'Helvetica';font-size:60.02px;fill:#000000" text-anchor="middle">2</text>
</svg>
