<?xml version="1.0" encoding="UTF-8" standalone="no"?>
<!-- This is a Stata 16.1 generated SVG file (http://www.stata.com) -->

<svg version="1.1" width="5.50in" height="4.00in" viewBox="0 0 3960 2880" xmlns="http://www.w3.org/2000/svg" xmlns:xlink="http://www.w3.org/1999/xlink">
	<desc>Stata Graph - Graph</desc>
	<rect x="0" y="0" width="3960" height="2880" style="fill:#EAF2F3;stroke:none"/>
	<rect x="0.00" y="0.00" width="3959.88" height="2880.00" style="fill:#FFFFFF"/>
	<rect x="2.88" y="2.88" width="3954.12" height="2874.24" style="fill:none;stroke:#FFFFFF;stroke-width:5.76"/>
	<rect x="130.80" y="100.86" width="3728.22" height="2528.29" style="fill:#FFFFFF"/>
	<rect x="133.68" y="103.74" width="3722.46" height="2522.53" style="fill:none;stroke:#FFFFFF;stroke-width:5.76"/>
	<line x1="2577.71" y1="2629.15" x2="2577.71" y2="100.86" style="stroke:#C10534;stroke-width:8.64"/>
	<circle cx="2415.72" cy="2565.91" r="19.29" style="fill:#000000"/>
	<circle cx="2415.72" cy="2565.91" r="14.97" style="fill:none;stroke:#000000;stroke-width:8.64"/>
	<circle cx="2678.57" cy="2439.56" r="19.29" style="fill:#000000"/>
	<circle cx="2678.57" cy="2439.56" r="14.97" style="fill:none;stroke:#000000;stroke-width:8.64"/>
	<circle cx="2682.28" cy="2313.08" r="19.29" style="fill:#000000"/>
	<circle cx="2682.28" cy="2313.08" r="14.97" style="fill:none;stroke:#000000;stroke-width:8.64"/>
	<circle cx="2483.79" cy="1933.90" r="19.29" style="fill:#000000"/>
	<circle cx="2483.79" cy="1933.90" r="14.97" style="fill:none;stroke:#000000;stroke-width:8.64"/>
	<circle cx="2733.39" cy="1807.43" r="19.29" style="fill:#000000"/>
	<circle cx="2733.39" cy="1807.43" r="14.97" style="fill:none;stroke:#000000;stroke-width:8.64"/>
	<circle cx="2631.05" cy="1681.07" r="19.29" style="fill:#000000"/>
	<circle cx="2631.05" cy="1681.07" r="14.97" style="fill:none;stroke:#000000;stroke-width:8.64"/>
	<circle cx="2412.88" cy="1301.89" r="19.29" style="fill:#000000"/>
	<circle cx="2412.88" cy="1301.89" r="14.97" style="fill:none;stroke:#000000;stroke-width:8.64"/>
	<circle cx="2680.43" cy="1175.41" r="19.29" style="fill:#000000"/>
	<circle cx="2680.43" cy="1175.41" r="14.97" style="fill:none;stroke:#000000;stroke-width:8.64"/>
	<circle cx="2645.53" cy="1049.06" r="19.29" style="fill:#000000"/>
	<circle cx="2645.53" cy="1049.06" r="14.97" style="fill:none;stroke:#000000;stroke-width:8.64"/>
	<circle cx="2479.08" cy="669.88" r="19.29" style="fill:#000000"/>
	<circle cx="2479.08" cy="669.88" r="14.97" style="fill:none;stroke:#000000;stroke-width:8.64"/>
	<circle cx="2737.35" cy="543.40" r="19.29" style="fill:#000000"/>
	<circle cx="2737.35" cy="543.40" r="14.97" style="fill:none;stroke:#000000;stroke-width:8.64"/>
	<circle cx="2637.24" cy="417.05" r="19.29" style="fill:#000000"/>
	<circle cx="2637.24" cy="417.05" r="14.97" style="fill:none;stroke:#000000;stroke-width:8.64"/>
	<line x1="1859.22" y1="2565.79" x2="2972.35" y2="2565.79" style="stroke:#000000;stroke-width:8.64"/>
	<line x1="2972.35" y1="2587.82" x2="2972.35" y2="2543.76" stroke-linecap="round" style="stroke:#000000;stroke-width:8.64"/>
	<line x1="1859.22" y1="2587.82" x2="1859.22" y2="2543.76" stroke-linecap="round" style="stroke:#000000;stroke-width:8.64"/>
	<line x1="2303.24" y1="2439.44" x2="3054.03" y2="2439.44" style="stroke:#000000;stroke-width:8.64"/>
	<line x1="3054.03" y1="2461.46" x2="3054.03" y2="2417.41" stroke-linecap="round" style="stroke:#000000;stroke-width:8.64"/>
	<line x1="2303.24" y1="2461.46" x2="2303.24" y2="2417.41" stroke-linecap="round" style="stroke:#000000;stroke-width:8.64"/>
	<line x1="2393.08" y1="2313.08" x2="2971.61" y2="2313.08" style="stroke:#000000;stroke-width:8.64"/>
	<line x1="2971.61" y1="2335.11" x2="2971.61" y2="2291.06" stroke-linecap="round" style="stroke:#000000;stroke-width:8.64"/>
	<line x1="2393.08" y1="2335.11" x2="2393.08" y2="2291.06" stroke-linecap="round" style="stroke:#000000;stroke-width:8.64"/>
	<line x1="1966.88" y1="1933.78" x2="3000.81" y2="1933.78" style="stroke:#000000;stroke-width:8.64"/>
	<line x1="3000.81" y1="1955.81" x2="3000.81" y2="1911.75" stroke-linecap="round" style="stroke:#000000;stroke-width:8.64"/>
	<line x1="1966.88" y1="1955.81" x2="1966.88" y2="1911.75" stroke-linecap="round" style="stroke:#000000;stroke-width:8.64"/>
	<line x1="2380.83" y1="1807.43" x2="3086.08" y2="1807.43" style="stroke:#000000;stroke-width:8.64"/>
	<line x1="3086.08" y1="1829.45" x2="3086.08" y2="1785.40" stroke-linecap="round" style="stroke:#000000;stroke-width:8.64"/>
	<line x1="2380.83" y1="1829.45" x2="2380.83" y2="1785.40" stroke-linecap="round" style="stroke:#000000;stroke-width:8.64"/>
	<line x1="2341.35" y1="1681.07" x2="2920.75" y2="1681.07" style="stroke:#000000;stroke-width:8.64"/>
	<line x1="2920.75" y1="1703.10" x2="2920.75" y2="1659.04" stroke-linecap="round" style="stroke:#000000;stroke-width:8.64"/>
	<line x1="2341.35" y1="1703.10" x2="2341.35" y2="1659.04" stroke-linecap="round" style="stroke:#000000;stroke-width:8.64"/>
	<line x1="1855.38" y1="1301.77" x2="2970.49" y2="1301.77" style="stroke:#000000;stroke-width:8.64"/>
	<line x1="2970.49" y1="1323.80" x2="2970.49" y2="1279.74" stroke-linecap="round" style="stroke:#000000;stroke-width:8.64"/>
	<line x1="1855.38" y1="1323.80" x2="1855.38" y2="1279.74" stroke-linecap="round" style="stroke:#000000;stroke-width:8.64"/>
	<line x1="2304.35" y1="1175.41" x2="3056.62" y2="1175.41" style="stroke:#000000;stroke-width:8.64"/>
	<line x1="3056.62" y1="1197.44" x2="3056.62" y2="1153.39" stroke-linecap="round" style="stroke:#000000;stroke-width:8.64"/>
	<line x1="2304.35" y1="1197.44" x2="2304.35" y2="1153.39" stroke-linecap="round" style="stroke:#000000;stroke-width:8.64"/>
	<line x1="2350.51" y1="1048.94" x2="2940.67" y2="1048.94" style="stroke:#000000;stroke-width:8.64"/>
	<line x1="2940.67" y1="1070.97" x2="2940.67" y2="1026.91" stroke-linecap="round" style="stroke:#000000;stroke-width:8.64"/>
	<line x1="2350.51" y1="1070.97" x2="2350.51" y2="1026.91" stroke-linecap="round" style="stroke:#000000;stroke-width:8.64"/>
	<line x1="1963.66" y1="669.76" x2="2994.75" y2="669.76" style="stroke:#000000;stroke-width:8.64"/>
	<line x1="2994.75" y1="691.78" x2="2994.75" y2="647.73" stroke-linecap="round" style="stroke:#000000;stroke-width:8.64"/>
	<line x1="1963.66" y1="691.78" x2="1963.66" y2="647.73" stroke-linecap="round" style="stroke:#000000;stroke-width:8.64"/>
	<line x1="2385.78" y1="543.40" x2="3088.92" y2="543.40" style="stroke:#000000;stroke-width:8.64"/>
	<line x1="3088.92" y1="565.43" x2="3088.92" y2="521.38" stroke-linecap="round" style="stroke:#000000;stroke-width:8.64"/>
	<line x1="2385.78" y1="565.43" x2="2385.78" y2="521.38" stroke-linecap="round" style="stroke:#000000;stroke-width:8.64"/>
	<line x1="2348.53" y1="416.93" x2="2926.19" y2="416.93" style="stroke:#000000;stroke-width:8.64"/>
	<line x1="2926.19" y1="438.95" x2="2926.19" y2="394.90" stroke-linecap="round" style="stroke:#000000;stroke-width:8.64"/>
	<line x1="2348.53" y1="438.95" x2="2348.53" y2="394.90" stroke-linecap="round" style="stroke:#000000;stroke-width:8.64"/>
	<text x="236.12" y="2586.83" style="font-family:'Helvetica';font-size:60.02px;fill:#000000"></text>
	<text x="236.12" y="2460.47" style="font-family:'Helvetica';font-size:60.02px;fill:#000000"></text>
	<text x="236.12" y="2334.12" style="font-family:'Helvetica';font-size:60.02px;fill:#000000"></text>
	<text x="236.12" y="2207.65" style="font-family:'Helvetica';font-weight:bold;font-size:60.02px;fill:#000000">Participants with at least 12 months registration at GP  (N=2611987)</text>
	<text x="236.12" y="2081.29" style="font-family:'Helvetica';font-size:60.02px;fill:#000000"></text>
	<text x="236.12" y="1954.82" style="font-family:'Helvetica';font-size:60.02px;fill:#000000"></text>
	<text x="236.12" y="1828.46" style="font-family:'Helvetica';font-size:60.02px;fill:#000000"></text>
	<text x="236.12" y="1702.11" style="font-family:'Helvetica';font-size:60.02px;fill:#000000"></text>
	<text x="236.12" y="1575.63" style="font-family:'Helvetica';font-weight:bold;font-size:60.02px;fill:#000000">Underlying timescale in the cox model revised to age   (N=2684524)</text>
	<text x="236.12" y="1449.28" style="font-family:'Helvetica';font-size:60.02px;fill:#000000"></text>
	<text x="236.12" y="1322.81" style="font-family:'Helvetica';font-size:60.02px;fill:#000000"></text>
	<text x="236.12" y="1196.45" style="font-family:'Helvetica';font-size:60.02px;fill:#000000"></text>
	<text x="236.12" y="1069.98" style="font-family:'Helvetica';font-size:60.02px;fill:#000000"></text>
	<text x="236.12" y="943.62" style="font-family:'Helvetica';font-weight:bold;font-size:60.02px;fill:#000000">Participants with complete BMI and smoking data  (N=2531893)</text>
	<text x="236.12" y="817.27" style="font-family:'Helvetica';font-size:60.02px;fill:#000000"></text>
	<text x="236.12" y="690.79" style="font-family:'Helvetica';font-size:60.02px;fill:#000000"></text>
	<text x="236.12" y="564.44" style="font-family:'Helvetica';font-size:60.02px;fill:#000000"></text>
	<text x="236.12" y="437.96" style="font-family:'Helvetica';font-size:60.02px;fill:#000000"></text>
	<text x="236.12" y="311.61" style="font-family:'Helvetica';font-weight:bold;font-size:60.02px;fill:#000000">Fully adjusted result  (N=2684524)</text>
	<text x="236.12" y="185.26" style="font-family:'Helvetica';font-size:60.02px;fill:#000000"></text>
	<text x="300.84" y="2586.83" style="font-family:'Helvetica';font-size:60.02px;fill:#000000">Children aged 0-11 years and ≥12 years</text>
	<text x="300.84" y="2460.47" style="font-family:'Helvetica';font-size:60.02px;fill:#000000">Only children aged ≥12 years</text>
	<text x="300.84" y="2334.12" style="font-family:'Helvetica';font-size:60.02px;fill:#000000">Only children aged 0-11 years</text>
	<text x="300.84" y="1954.82" style="font-family:'Helvetica';font-size:60.02px;fill:#000000">Children aged 0-11 years and ≥12 years</text>
	<text x="300.84" y="1828.46" style="font-family:'Helvetica';font-size:60.02px;fill:#000000">Only children aged ≥12 years</text>
	<text x="300.84" y="1702.11" style="font-family:'Helvetica';font-size:60.02px;fill:#000000">Only children aged 0-11 years</text>
	<text x="300.84" y="1322.81" style="font-family:'Helvetica';font-size:60.02px;fill:#000000">Children aged 0-11 years and ≥12 years</text>
	<text x="300.84" y="1196.45" style="font-family:'Helvetica';font-size:60.02px;fill:#000000">Only children aged ≥12 years</text>
	<text x="300.84" y="1069.98" style="font-family:'Helvetica';font-size:60.02px;fill:#000000">Only children aged 0-11 years</text>
	<text x="300.84" y="690.79" style="font-family:'Helvetica';font-size:60.02px;fill:#000000">Children aged 0-11 years and ≥12 years</text>
	<text x="300.84" y="564.44" style="font-family:'Helvetica';font-size:60.02px;fill:#000000">Only children aged ≥12 years</text>
	<text x="300.84" y="437.96" style="font-family:'Helvetica';font-size:60.02px;fill:#000000">Only children aged 0-11 years</text>
	<text x="3242.62" y="2586.83" style="font-family:'Helvetica';font-size:60.02px;fill:#000000">0.79 (0.35-1.79)</text>
	<text x="3242.62" y="2460.47" style="font-family:'Helvetica';font-size:60.02px;fill:#000000">1.16 (0.67-2.01)</text>
	<text x="3242.62" y="2334.12" style="font-family:'Helvetica';font-size:60.02px;fill:#000000">1.17 (0.76-1.78)</text>
	<text x="3242.62" y="1954.82" style="font-family:'Helvetica';font-size:60.02px;fill:#000000">0.87 (0.41-1.86)</text>
	<text x="3242.62" y="1828.46" style="font-family:'Helvetica';font-size:60.02px;fill:#000000">1.26 (0.75-2.11)</text>
	<text x="3242.62" y="1702.11" style="font-family:'Helvetica';font-size:60.02px;fill:#000000">1.08 (0.71-1.66)</text>
	<text x="3242.62" y="1322.81" style="font-family:'Helvetica';font-size:60.02px;fill:#000000">0.78 (0.35-1.78)</text>
	<text x="3242.62" y="1196.45" style="font-family:'Helvetica';font-size:60.02px;fill:#000000">1.16 (0.67-2.02)</text>
	<text x="3242.62" y="1069.98" style="font-family:'Helvetica';font-size:60.02px;fill:#000000">1.10 (0.72-1.71)</text>
	<text x="3242.62" y="690.79" style="font-family:'Helvetica';font-size:60.02px;fill:#000000">0.87 (0.41-1.85)</text>
	<text x="3242.62" y="564.44" style="font-family:'Helvetica';font-size:60.02px;fill:#000000">1.26 (0.75-2.12)</text>
	<text x="3242.62" y="437.96" style="font-family:'Helvetica';font-size:60.02px;fill:#000000">1.09 (0.71-1.67)</text>
	<text x="3242.62" y="2586.83" style="font-family:'Helvetica';font-size:60.02px;fill:#000000"></text>
	<text x="3242.62" y="2460.47" style="font-family:'Helvetica';font-size:60.02px;fill:#000000"></text>
	<text x="3242.62" y="2334.12" style="font-family:'Helvetica';font-size:60.02px;fill:#000000"></text>
	<text x="3242.62" y="2207.65" style="font-family:'Helvetica';font-size:60.02px;fill:#000000"></text>
	<text x="3242.62" y="2081.29" style="font-family:'Helvetica';font-size:60.02px;fill:#000000"></text>
	<text x="3242.62" y="1954.82" style="font-family:'Helvetica';font-size:60.02px;fill:#000000"></text>
	<text x="3242.62" y="1828.46" style="font-family:'Helvetica';font-size:60.02px;fill:#000000"></text>
	<text x="3242.62" y="1702.11" style="font-family:'Helvetica';font-size:60.02px;fill:#000000"></text>
	<text x="3242.62" y="1575.63" style="font-family:'Helvetica';font-size:60.02px;fill:#000000"></text>
	<text x="3242.62" y="1449.28" style="font-family:'Helvetica';font-size:60.02px;fill:#000000"></text>
	<text x="3242.62" y="1322.81" style="font-family:'Helvetica';font-size:60.02px;fill:#000000"></text>
	<text x="3242.62" y="1196.45" style="font-family:'Helvetica';font-size:60.02px;fill:#000000"></text>
	<text x="3242.62" y="1069.98" style="font-family:'Helvetica';font-size:60.02px;fill:#000000"></text>
	<text x="3242.62" y="943.62" style="font-family:'Helvetica';font-size:60.02px;fill:#000000"></text>
	<text x="3242.62" y="817.27" style="font-family:'Helvetica';font-size:60.02px;fill:#000000"></text>
	<text x="3242.62" y="690.79" style="font-family:'Helvetica';font-size:60.02px;fill:#000000"></text>
	<text x="3242.62" y="564.44" style="font-family:'Helvetica';font-size:60.02px;fill:#000000"></text>
	<text x="3242.62" y="437.96" style="font-family:'Helvetica';font-size:60.02px;fill:#000000"></text>
	<text x="3242.62" y="311.61" style="font-family:'Helvetica';font-size:60.02px;fill:#000000"></text>
	<text x="3242.62" y="185.26" style="font-family:'Helvetica';font-size:60.02px;fill:#000000"></text>
	<text x="2002.89" y="2966.13" style="font-family:'Helvetica';font-size:60.02px;fill:#000000" text-anchor="middle">Lower risk in those living with children</text>
	<text x="3379.12" y="2966.13" style="font-family:'Helvetica';font-size:60.02px;fill:#000000" text-anchor="middle">Higher risk in those living with children</text>
	<line x1="130.80" y1="2629.15" x2="130.80" y2="100.86" style="stroke:#FFFFFF;stroke-width:5.76"/>
	<line x1="130.80" y1="2629.15" x2="3859.02" y2="2629.15" style="stroke:#000000;stroke-width:5.76"/>
	<line x1="2106.60" y1="2629.15" x2="2106.60" y2="2669.25" style="stroke:#000000;stroke-width:5.76"/>
	<text x="2106.60" y="2731.12" style="font-family:'Helvetica';font-size:60.02px;fill:#000000" text-anchor="middle">.5</text>
	<line x1="2577.71" y1="2629.15" x2="2577.71" y2="2669.25" style="stroke:#000000;stroke-width:5.76"/>
	<text x="2577.71" y="2731.12" style="font-family:'Helvetica';font-size:60.02px;fill:#000000" text-anchor="middle">1</text>
	<line x1="3048.95" y1="2629.15" x2="3048.95" y2="2669.25" style="stroke:#000000;stroke-width:5.76"/>
	<text x="3048.95" y="2731.12" style="font-family:'Helvetica';font-size:60.02px;fill:#000000" text-anchor="middle">2</text>
</svg>
