<?xml version="1.0" encoding="UTF-8" standalone="no"?>
<!-- This is a Stata 16.1 generated SVG file (http://www.stata.com) -->

<svg version="1.1" width="5.50in" height="4.00in" viewBox="0 0 3960 2880" xmlns="http://www.w3.org/2000/svg" xmlns:xlink="http://www.w3.org/1999/xlink">
	<desc>Stata Graph - Graph</desc>
	<rect x="0" y="0" width="3960" height="2880" style="fill:#EAF2F3;stroke:none"/>
	<rect x="0.00" y="0.00" width="3959.88" height="2880.00" style="fill:#FFFFFF"/>
	<rect x="2.88" y="2.88" width="3954.12" height="2874.24" style="fill:none;stroke:#FFFFFF;stroke-width:5.76"/>
	<rect x="130.80" y="100.86" width="3728.22" height="2528.29" style="fill:#FFFFFF"/>
	<rect x="133.68" y="103.74" width="3722.46" height="2522.53" style="fill:none;stroke:#FFFFFF;stroke-width:5.76"/>
	<line x1="2577.71" y1="2629.15" x2="2577.71" y2="100.86" style="stroke:#C10534;stroke-width:8.64"/>
	<circle cx="2697.87" cy="2565.91" r="19.29" style="fill:#000000"/>
	<circle cx="2697.87" cy="2565.91" r="14.97" style="fill:none;stroke:#000000;stroke-width:8.64"/>
	<circle cx="2604.07" cy="2483.12" r="19.29" style="fill:#000000"/>
	<circle cx="2604.07" cy="2483.12" r="14.97" style="fill:none;stroke:#000000;stroke-width:8.64"/>
	<circle cx="2548.14" cy="2400.33" r="19.29" style="fill:#000000"/>
	<circle cx="2548.14" cy="2400.33" r="14.97" style="fill:none;stroke:#000000;stroke-width:8.64"/>
	<circle cx="2710.12" cy="2151.83" r="19.29" style="fill:#000000"/>
	<circle cx="2710.12" cy="2151.83" r="14.97" style="fill:none;stroke:#000000;stroke-width:8.64"/>
	<circle cx="2610.88" cy="2069.04" r="19.29" style="fill:#000000"/>
	<circle cx="2610.88" cy="2069.04" r="14.97" style="fill:none;stroke:#000000;stroke-width:8.64"/>
	<circle cx="2531.80" cy="1986.25" r="19.29" style="fill:#000000"/>
	<circle cx="2531.80" cy="1986.25" r="14.97" style="fill:none;stroke:#000000;stroke-width:8.64"/>
	<circle cx="2704.93" cy="1737.75" r="19.29" style="fill:#000000"/>
	<circle cx="2704.93" cy="1737.75" r="14.97" style="fill:none;stroke:#000000;stroke-width:8.64"/>
	<circle cx="2604.81" cy="1654.96" r="19.29" style="fill:#000000"/>
	<circle cx="2604.81" cy="1654.96" r="14.97" style="fill:none;stroke:#000000;stroke-width:8.64"/>
	<circle cx="2544.18" cy="1572.05" r="19.29" style="fill:#000000"/>
	<circle cx="2544.18" cy="1572.05" r="14.97" style="fill:none;stroke:#000000;stroke-width:8.64"/>
	<circle cx="2680.67" cy="1323.67" r="19.29" style="fill:#000000"/>
	<circle cx="2680.67" cy="1323.67" r="14.97" style="fill:none;stroke:#000000;stroke-width:8.64"/>
	<circle cx="2575.11" cy="1240.88" r="19.29" style="fill:#000000"/>
	<circle cx="2575.11" cy="1240.88" r="14.97" style="fill:none;stroke:#000000;stroke-width:8.64"/>
	<circle cx="2673.12" cy="1157.96" r="19.29" style="fill:#000000"/>
	<circle cx="2673.12" cy="1157.96" r="14.97" style="fill:none;stroke:#000000;stroke-width:8.64"/>
	<circle cx="2703.69" cy="909.59" r="19.29" style="fill:#000000"/>
	<circle cx="2703.69" cy="909.59" r="14.97" style="fill:none;stroke:#000000;stroke-width:8.64"/>
	<circle cx="2595.04" cy="826.80" r="19.29" style="fill:#000000"/>
	<circle cx="2595.04" cy="826.80" r="14.97" style="fill:none;stroke:#000000;stroke-width:8.64"/>
	<circle cx="2546.28" cy="743.88" r="19.29" style="fill:#000000"/>
	<circle cx="2546.28" cy="743.88" r="14.97" style="fill:none;stroke:#000000;stroke-width:8.64"/>
	<circle cx="2698.00" cy="495.51" r="19.29" style="fill:#000000"/>
	<circle cx="2698.00" cy="495.51" r="14.97" style="fill:none;stroke:#000000;stroke-width:8.64"/>
	<circle cx="2604.20" cy="412.72" r="19.29" style="fill:#000000"/>
	<circle cx="2604.20" cy="412.72" r="14.97" style="fill:none;stroke:#000000;stroke-width:8.64"/>
	<circle cx="2548.26" cy="329.80" r="19.29" style="fill:#000000"/>
	<circle cx="2548.26" cy="329.80" r="14.97" style="fill:none;stroke:#000000;stroke-width:8.64"/>
	<line x1="2508.91" y1="2565.79" x2="2886.96" y2="2565.79" style="stroke:#000000;stroke-width:8.64"/>
	<line x1="2886.96" y1="2587.82" x2="2886.96" y2="2543.76" stroke-linecap="round" style="stroke:#000000;stroke-width:8.64"/>
	<line x1="2508.91" y1="2587.82" x2="2508.91" y2="2543.76" stroke-linecap="round" style="stroke:#000000;stroke-width:8.64"/>
	<line x1="2434.16" y1="2483.00" x2="2774.10" y2="2483.00" style="stroke:#000000;stroke-width:8.64"/>
	<line x1="2774.10" y1="2505.03" x2="2774.10" y2="2460.97" stroke-linecap="round" style="stroke:#000000;stroke-width:8.64"/>
	<line x1="2434.16" y1="2505.03" x2="2434.16" y2="2460.97" stroke-linecap="round" style="stroke:#000000;stroke-width:8.64"/>
	<line x1="2401.99" y1="2400.21" x2="2694.41" y2="2400.21" style="stroke:#000000;stroke-width:8.64"/>
	<line x1="2694.41" y1="2422.23" x2="2694.41" y2="2378.18" stroke-linecap="round" style="stroke:#000000;stroke-width:8.64"/>
	<line x1="2401.99" y1="2422.23" x2="2401.99" y2="2378.18" stroke-linecap="round" style="stroke:#000000;stroke-width:8.64"/>
	<line x1="2519.55" y1="2151.71" x2="2900.95" y2="2151.71" style="stroke:#000000;stroke-width:8.64"/>
	<line x1="2900.95" y1="2173.74" x2="2900.95" y2="2129.68" stroke-linecap="round" style="stroke:#000000;stroke-width:8.64"/>
	<line x1="2519.55" y1="2173.74" x2="2519.55" y2="2129.68" stroke-linecap="round" style="stroke:#000000;stroke-width:8.64"/>
	<line x1="2439.48" y1="2068.92" x2="2782.39" y2="2068.92" style="stroke:#000000;stroke-width:8.64"/>
	<line x1="2782.39" y1="2090.95" x2="2782.39" y2="2046.89" stroke-linecap="round" style="stroke:#000000;stroke-width:8.64"/>
	<line x1="2439.48" y1="2090.95" x2="2439.48" y2="2046.89" stroke-linecap="round" style="stroke:#000000;stroke-width:8.64"/>
	<line x1="2381.94" y1="1986.13" x2="2681.66" y2="1986.13" style="stroke:#000000;stroke-width:8.64"/>
	<line x1="2681.66" y1="2008.15" x2="2681.66" y2="1964.10" stroke-linecap="round" style="stroke:#000000;stroke-width:8.64"/>
	<line x1="2381.94" y1="2008.15" x2="2381.94" y2="1964.10" stroke-linecap="round" style="stroke:#000000;stroke-width:8.64"/>
	<line x1="2516.33" y1="1737.63" x2="2893.65" y2="1737.63" style="stroke:#000000;stroke-width:8.64"/>
	<line x1="2893.65" y1="1759.66" x2="2893.65" y2="1715.60" stroke-linecap="round" style="stroke:#000000;stroke-width:8.64"/>
	<line x1="2516.33" y1="1759.66" x2="2516.33" y2="1715.60" stroke-linecap="round" style="stroke:#000000;stroke-width:8.64"/>
	<line x1="2435.03" y1="1654.84" x2="2774.60" y2="1654.84" style="stroke:#000000;stroke-width:8.64"/>
	<line x1="2774.60" y1="1676.86" x2="2774.60" y2="1632.81" stroke-linecap="round" style="stroke:#000000;stroke-width:8.64"/>
	<line x1="2435.03" y1="1676.86" x2="2435.03" y2="1632.81" stroke-linecap="round" style="stroke:#000000;stroke-width:8.64"/>
	<line x1="2397.66" y1="1572.05" x2="2690.82" y2="1572.05" style="stroke:#000000;stroke-width:8.64"/>
	<line x1="2690.82" y1="1594.07" x2="2690.82" y2="1550.02" stroke-linecap="round" style="stroke:#000000;stroke-width:8.64"/>
	<line x1="2397.66" y1="1594.07" x2="2397.66" y2="1550.02" stroke-linecap="round" style="stroke:#000000;stroke-width:8.64"/>
	<line x1="2431.69" y1="1323.55" x2="2929.78" y2="1323.55" style="stroke:#000000;stroke-width:8.64"/>
	<line x1="2929.78" y1="1345.58" x2="2929.78" y2="1301.52" stroke-linecap="round" style="stroke:#000000;stroke-width:8.64"/>
	<line x1="2431.69" y1="1345.58" x2="2431.69" y2="1301.52" stroke-linecap="round" style="stroke:#000000;stroke-width:8.64"/>
	<line x1="2352.98" y1="1240.76" x2="2797.37" y2="1240.76" style="stroke:#000000;stroke-width:8.64"/>
	<line x1="2797.37" y1="1262.78" x2="2797.37" y2="1218.73" stroke-linecap="round" style="stroke:#000000;stroke-width:8.64"/>
	<line x1="2352.98" y1="1262.78" x2="2352.98" y2="1218.73" stroke-linecap="round" style="stroke:#000000;stroke-width:8.64"/>
	<line x1="2498.88" y1="1157.96" x2="2847.49" y2="1157.96" style="stroke:#000000;stroke-width:8.64"/>
	<line x1="2847.49" y1="1179.99" x2="2847.49" y2="1135.94" stroke-linecap="round" style="stroke:#000000;stroke-width:8.64"/>
	<line x1="2498.88" y1="1179.99" x2="2498.88" y2="1135.94" stroke-linecap="round" style="stroke:#000000;stroke-width:8.64"/>
	<line x1="2510.64" y1="909.47" x2="2896.86" y2="909.47" style="stroke:#000000;stroke-width:8.64"/>
	<line x1="2896.86" y1="931.50" x2="2896.86" y2="887.44" stroke-linecap="round" style="stroke:#000000;stroke-width:8.64"/>
	<line x1="2510.64" y1="931.50" x2="2510.64" y2="887.44" stroke-linecap="round" style="stroke:#000000;stroke-width:8.64"/>
	<line x1="2419.81" y1="826.68" x2="2770.27" y2="826.68" style="stroke:#000000;stroke-width:8.64"/>
	<line x1="2770.27" y1="848.70" x2="2770.27" y2="804.65" stroke-linecap="round" style="stroke:#000000;stroke-width:8.64"/>
	<line x1="2419.81" y1="848.70" x2="2419.81" y2="804.65" stroke-linecap="round" style="stroke:#000000;stroke-width:8.64"/>
	<line x1="2396.17" y1="743.88" x2="2696.51" y2="743.88" style="stroke:#000000;stroke-width:8.64"/>
	<line x1="2696.51" y1="765.91" x2="2696.51" y2="721.86" stroke-linecap="round" style="stroke:#000000;stroke-width:8.64"/>
	<line x1="2396.17" y1="765.91" x2="2396.17" y2="721.86" stroke-linecap="round" style="stroke:#000000;stroke-width:8.64"/>
	<line x1="2509.03" y1="495.39" x2="2887.09" y2="495.39" style="stroke:#000000;stroke-width:8.64"/>
	<line x1="2887.09" y1="517.41" x2="2887.09" y2="473.36" stroke-linecap="round" style="stroke:#000000;stroke-width:8.64"/>
	<line x1="2509.03" y1="517.41" x2="2509.03" y2="473.36" stroke-linecap="round" style="stroke:#000000;stroke-width:8.64"/>
	<line x1="2434.16" y1="412.60" x2="2774.23" y2="412.60" style="stroke:#000000;stroke-width:8.64"/>
	<line x1="2774.23" y1="434.62" x2="2774.23" y2="390.57" stroke-linecap="round" style="stroke:#000000;stroke-width:8.64"/>
	<line x1="2434.16" y1="434.62" x2="2434.16" y2="390.57" stroke-linecap="round" style="stroke:#000000;stroke-width:8.64"/>
	<line x1="2402.11" y1="329.80" x2="2694.53" y2="329.80" style="stroke:#000000;stroke-width:8.64"/>
	<line x1="2694.53" y1="351.83" x2="2694.53" y2="307.78" stroke-linecap="round" style="stroke:#000000;stroke-width:8.64"/>
	<line x1="2402.11" y1="351.83" x2="2402.11" y2="307.78" stroke-linecap="round" style="stroke:#000000;stroke-width:8.64"/>
	<text x="236.12" y="2586.83" style="font-family:'Helvetica';font-size:60.02px;fill:#000000"></text>
	<text x="236.12" y="2504.04" style="font-family:'Helvetica';font-size:60.02px;fill:#000000"></text>
	<text x="236.12" y="2421.24" style="font-family:'Helvetica';font-size:60.02px;fill:#000000"></text>
	<text x="236.12" y="2338.45" style="font-family:'Helvetica';font-weight:bold;font-size:60.02px;fill:#000000">Non-proportional hazards fitted (N=2706502)</text>
	<text x="236.12" y="2255.66" style="font-family:'Helvetica';font-size:60.02px;fill:#000000"></text>
	<text x="236.12" y="2172.75" style="font-family:'Helvetica';font-size:60.02px;fill:#000000"></text>
	<text x="236.12" y="2089.96" style="font-family:'Helvetica';font-size:60.02px;fill:#000000"></text>
	<text x="236.12" y="2007.16" style="font-family:'Helvetica';font-size:60.02px;fill:#000000"></text>
	<text x="236.12" y="1924.37" style="font-family:'Helvetica';font-weight:bold;font-size:60.02px;fill:#000000">Participants with at least 12 months registration at GP  (N=2651489)</text>
	<text x="236.12" y="1841.58" style="font-family:'Helvetica';font-size:60.02px;fill:#000000"></text>
	<text x="236.12" y="1758.67" style="font-family:'Helvetica';font-size:60.02px;fill:#000000"></text>
	<text x="236.12" y="1675.87" style="font-family:'Helvetica';font-size:60.02px;fill:#000000"></text>
	<text x="236.12" y="1593.08" style="font-family:'Helvetica';font-size:60.02px;fill:#000000"></text>
	<text x="236.12" y="1510.29" style="font-family:'Helvetica';font-weight:bold;font-size:60.02px;fill:#000000">Underlying timescale in the cox model revised to age   (N=2706502)</text>
	<text x="236.12" y="1427.50" style="font-family:'Helvetica';font-size:60.02px;fill:#000000"></text>
	<text x="236.12" y="1344.59" style="font-family:'Helvetica';font-size:60.02px;fill:#000000"></text>
	<text x="236.12" y="1261.79" style="font-family:'Helvetica';font-size:60.02px;fill:#000000"></text>
	<text x="236.12" y="1179.00" style="font-family:'Helvetica';font-size:60.02px;fill:#000000"></text>
	<text x="236.12" y="1096.21" style="font-family:'Helvetica';font-weight:bold;font-size:60.02px;fill:#000000">Censor study at 1st November (N=)</text>
	<text x="236.12" y="1013.42" style="font-family:'Helvetica';font-size:60.02px;fill:#000000"></text>
	<text x="236.12" y="930.51" style="font-family:'Helvetica';font-size:60.02px;fill:#000000"></text>
	<text x="236.12" y="847.71" style="font-family:'Helvetica';font-size:60.02px;fill:#000000"></text>
	<text x="236.12" y="764.92" style="font-family:'Helvetica';font-size:60.02px;fill:#000000"></text>
	<text x="236.12" y="682.13" style="font-family:'Helvetica';font-weight:bold;font-size:60.02px;fill:#000000">Participants with complete BMI and smoking data  (N=2539973)</text>
	<text x="236.12" y="599.34" style="font-family:'Helvetica';font-size:60.02px;fill:#000000"></text>
	<text x="236.12" y="516.42" style="font-family:'Helvetica';font-size:60.02px;fill:#000000"></text>
	<text x="236.12" y="433.63" style="font-family:'Helvetica';font-size:60.02px;fill:#000000"></text>
	<text x="236.12" y="350.84" style="font-family:'Helvetica';font-size:60.02px;fill:#000000"></text>
	<text x="236.12" y="268.05" style="font-family:'Helvetica';font-weight:bold;font-size:60.02px;fill:#000000">Fully adjusted result  (N=2706502)</text>
	<text x="236.12" y="185.26" style="font-family:'Helvetica';font-size:60.02px;fill:#000000"></text>
	<text x="300.84" y="2586.83" style="font-family:'Helvetica';font-size:60.02px;fill:#000000">Children aged 0-11 years and ≥12 years</text>
	<text x="300.84" y="2504.04" style="font-family:'Helvetica';font-size:60.02px;fill:#000000">Only children aged ≥12 years</text>
	<text x="300.84" y="2421.24" style="font-family:'Helvetica';font-size:60.02px;fill:#000000">Only children aged 0-11 years</text>
	<text x="300.84" y="2172.75" style="font-family:'Helvetica';font-size:60.02px;fill:#000000">Children aged 0-11 years and ≥12 years</text>
	<text x="300.84" y="2089.96" style="font-family:'Helvetica';font-size:60.02px;fill:#000000">Only children aged ≥12 years</text>
	<text x="300.84" y="2007.16" style="font-family:'Helvetica';font-size:60.02px;fill:#000000">Only children aged 0-11 years</text>
	<text x="300.84" y="1758.67" style="font-family:'Helvetica';font-size:60.02px;fill:#000000">Children aged 0-11 years and ≥12 years</text>
	<text x="300.84" y="1675.87" style="font-family:'Helvetica';font-size:60.02px;fill:#000000">Only children aged ≥12 years</text>
	<text x="300.84" y="1593.08" style="font-family:'Helvetica';font-size:60.02px;fill:#000000">Only children aged 0-11 years</text>
	<text x="300.84" y="1344.59" style="font-family:'Helvetica';font-size:60.02px;fill:#000000">Children aged 0-11 years and ≥12 years</text>
	<text x="300.84" y="1261.79" style="font-family:'Helvetica';font-size:60.02px;fill:#000000">Only children aged ≥12 years</text>
	<text x="300.84" y="1179.00" style="font-family:'Helvetica';font-size:60.02px;fill:#000000">Only children aged 0-11 years</text>
	<text x="300.84" y="930.51" style="font-family:'Helvetica';font-size:60.02px;fill:#000000">Children aged 0-11 years and ≥12 years</text>
	<text x="300.84" y="847.71" style="font-family:'Helvetica';font-size:60.02px;fill:#000000">Only children aged ≥12 years</text>
	<text x="300.84" y="764.92" style="font-family:'Helvetica';font-size:60.02px;fill:#000000">Only children aged 0-11 years</text>
	<text x="300.84" y="516.42" style="font-family:'Helvetica';font-size:60.02px;fill:#000000">Children aged 0-11 years and ≥12 years</text>
	<text x="300.84" y="433.63" style="font-family:'Helvetica';font-size:60.02px;fill:#000000">Only children aged ≥12 years</text>
	<text x="300.84" y="350.84" style="font-family:'Helvetica';font-size:60.02px;fill:#000000">Only children aged 0-11 years</text>
	<text x="3242.62" y="2586.83" style="font-family:'Helvetica';font-size:60.02px;fill:#000000">1.19 (0.90-1.58)</text>
	<text x="3242.62" y="2504.04" style="font-family:'Helvetica';font-size:60.02px;fill:#000000">1.04 (0.81-1.33)</text>
	<text x="3242.62" y="2421.24" style="font-family:'Helvetica';font-size:60.02px;fill:#000000">0.96 (0.77-1.19)</text>
	<text x="3242.62" y="2172.75" style="font-family:'Helvetica';font-size:60.02px;fill:#000000">1.22 (0.92-1.61)</text>
	<text x="3242.62" y="2089.96" style="font-family:'Helvetica';font-size:60.02px;fill:#000000">1.05 (0.82-1.35)</text>
	<text x="3242.62" y="2007.16" style="font-family:'Helvetica';font-size:60.02px;fill:#000000">0.93 (0.75-1.17)</text>
	<text x="3242.62" y="1758.67" style="font-family:'Helvetica';font-size:60.02px;fill:#000000">1.21 (0.91-1.59)</text>
	<text x="3242.62" y="1675.87" style="font-family:'Helvetica';font-size:60.02px;fill:#000000">1.04 (0.81-1.34)</text>
	<text x="3242.62" y="1593.08" style="font-family:'Helvetica';font-size:60.02px;fill:#000000">0.95 (0.77-1.18)</text>
	<text x="3242.62" y="1344.59" style="font-family:'Helvetica';font-size:60.02px;fill:#000000">1.16 (0.81-1.68)</text>
	<text x="3242.62" y="1261.79" style="font-family:'Helvetica';font-size:60.02px;fill:#000000">1.00 (0.72-1.38)</text>
	<text x="3242.62" y="1179.00" style="font-family:'Helvetica';font-size:60.02px;fill:#000000">1.15 (0.89-1.49)</text>
	<text x="3242.62" y="930.51" style="font-family:'Helvetica';font-size:60.02px;fill:#000000">1.20 (0.91-1.60)</text>
	<text x="3242.62" y="847.71" style="font-family:'Helvetica';font-size:60.02px;fill:#000000">1.03 (0.79-1.33)</text>
	<text x="3242.62" y="764.92" style="font-family:'Helvetica';font-size:60.02px;fill:#000000">0.95 (0.77-1.19)</text>
	<text x="3242.62" y="516.42" style="font-family:'Helvetica';font-size:60.02px;fill:#000000">1.19 (0.90-1.58)</text>
	<text x="3242.62" y="433.63" style="font-family:'Helvetica';font-size:60.02px;fill:#000000">1.04 (0.81-1.34)</text>
	<text x="3242.62" y="350.84" style="font-family:'Helvetica';font-size:60.02px;fill:#000000">0.96 (0.77-1.19)</text>
	<text x="3242.62" y="2586.83" style="font-family:'Helvetica';font-size:60.02px;fill:#000000"></text>
	<text x="3242.62" y="2504.04" style="font-family:'Helvetica';font-size:60.02px;fill:#000000"></text>
	<text x="3242.62" y="2421.24" style="font-family:'Helvetica';font-size:60.02px;fill:#000000"></text>
	<text x="3242.62" y="2338.45" style="font-family:'Helvetica';font-size:60.02px;fill:#000000"></text>
	<text x="3242.62" y="2255.66" style="font-family:'Helvetica';font-size:60.02px;fill:#000000"></text>
	<text x="3242.62" y="2172.75" style="font-family:'Helvetica';font-size:60.02px;fill:#000000"></text>
	<text x="3242.62" y="2089.96" style="font-family:'Helvetica';font-size:60.02px;fill:#000000"></text>
	<text x="3242.62" y="2007.16" style="font-family:'Helvetica';font-size:60.02px;fill:#000000"></text>
	<text x="3242.62" y="1924.37" style="font-family:'Helvetica';font-size:60.02px;fill:#000000"></text>
	<text x="3242.62" y="1841.58" style="font-family:'Helvetica';font-size:60.02px;fill:#000000"></text>
	<text x="3242.62" y="1758.67" style="font-family:'Helvetica';font-size:60.02px;fill:#000000"></text>
	<text x="3242.62" y="1675.87" style="font-family:'Helvetica';font-size:60.02px;fill:#000000"></text>
	<text x="3242.62" y="1593.08" style="font-family:'Helvetica';font-size:60.02px;fill:#000000"></text>
	<text x="3242.62" y="1510.29" style="font-family:'Helvetica';font-size:60.02px;fill:#000000"></text>
	<text x="3242.62" y="1427.50" style="font-family:'Helvetica';font-size:60.02px;fill:#000000"></text>
	<text x="3242.62" y="1344.59" style="font-family:'Helvetica';font-size:60.02px;fill:#000000"></text>
	<text x="3242.62" y="1261.79" style="font-family:'Helvetica';font-size:60.02px;fill:#000000"></text>
	<text x="3242.62" y="1179.00" style="font-family:'Helvetica';font-size:60.02px;fill:#000000"></text>
	<text x="3242.62" y="1096.21" style="font-family:'Helvetica';font-size:60.02px;fill:#000000"></text>
	<text x="3242.62" y="1013.42" style="font-family:'Helvetica';font-size:60.02px;fill:#000000"></text>
	<text x="3242.62" y="930.51" style="font-family:'Helvetica';font-size:60.02px;fill:#000000"></text>
	<text x="3242.62" y="847.71" style="font-family:'Helvetica';font-size:60.02px;fill:#000000"></text>
	<text x="3242.62" y="764.92" style="font-family:'Helvetica';font-size:60.02px;fill:#000000"></text>
	<text x="3242.62" y="682.13" style="font-family:'Helvetica';font-size:60.02px;fill:#000000"></text>
	<text x="3242.62" y="599.34" style="font-family:'Helvetica';font-size:60.02px;fill:#000000"></text>
	<text x="3242.62" y="516.42" style="font-family:'Helvetica';font-size:60.02px;fill:#000000"></text>
	<text x="3242.62" y="433.63" style="font-family:'Helvetica';font-size:60.02px;fill:#000000"></text>
	<text x="3242.62" y="350.84" style="font-family:'Helvetica';font-weight:bold;font-size:60.02px;fill:#000000">Hazard Ratio (95% CI)</text>
	<text x="3242.62" y="268.05" style="font-family:'Helvetica';font-size:60.02px;fill:#000000"></text>
	<text x="3242.62" y="185.26" style="font-family:'Helvetica';font-size:60.02px;fill:#000000"></text>
	<text x="2002.89" y="2835.32" style="font-family:'Helvetica';font-size:60.02px;fill:#000000" text-anchor="middle">Lower risk in those living with children</text>
	<text x="3379.12" y="2835.32" style="font-family:'Helvetica';font-size:60.02px;fill:#000000" text-anchor="middle">Higher risk in those living with children</text>
	<line x1="130.80" y1="2629.15" x2="130.80" y2="100.86" style="stroke:#FFFFFF;stroke-width:5.76"/>
	<line x1="130.80" y1="2629.15" x2="3859.02" y2="2629.15" style="stroke:#000000;stroke-width:5.76"/>
	<line x1="2106.60" y1="2629.15" x2="2106.60" y2="2669.25" style="stroke:#000000;stroke-width:5.76"/>
	<text x="2106.60" y="2731.12" style="font-family:'Helvetica';font-size:60.02px;fill:#000000" text-anchor="middle">.5</text>
	<line x1="2577.71" y1="2629.15" x2="2577.71" y2="2669.25" style="stroke:#000000;stroke-width:5.76"/>
	<text x="2577.71" y="2731.12" style="font-family:'Helvetica';font-size:60.02px;fill:#000000" text-anchor="middle">1</text>
	<line x1="3048.95" y1="2629.15" x2="3048.95" y2="2669.25" style="stroke:#000000;stroke-width:5.76"/>
	<text x="3048.95" y="2731.12" style="font-family:'Helvetica';font-size:60.02px;fill:#000000" text-anchor="middle">2</text>
</svg>
