<?xml version="1.0" encoding="UTF-8" standalone="no"?>
<!-- This is a Stata 16.1 generated SVG file (http://www.stata.com) -->

<svg version="1.1" width="5.50in" height="4.00in" viewBox="0 0 3960 2880" xmlns="http://www.w3.org/2000/svg" xmlns:xlink="http://www.w3.org/1999/xlink">
	<desc>Stata Graph - Graph</desc>
	<rect x="0" y="0" width="3960" height="2880" style="fill:#EAF2F3;stroke:none"/>
	<rect x="0.00" y="0.00" width="3959.88" height="2880.00" style="fill:#FFFFFF"/>
	<rect x="2.88" y="2.88" width="3954.12" height="2874.24" style="fill:none;stroke:#FFFFFF;stroke-width:5.76"/>
	<rect x="130.80" y="100.86" width="3728.22" height="2528.29" style="fill:#FFFFFF"/>
	<rect x="133.68" y="103.74" width="3722.46" height="2522.53" style="fill:none;stroke:#FFFFFF;stroke-width:5.76"/>
	<line x1="2577.71" y1="2629.15" x2="2577.71" y2="100.86" style="stroke:#C10534;stroke-width:8.64"/>
	<circle cx="2827.56" cy="2565.91" r="19.29" style="fill:#000000"/>
	<circle cx="2827.56" cy="2565.91" r="14.97" style="fill:none;stroke:#000000;stroke-width:8.64"/>
	<circle cx="2732.03" cy="2483.12" r="19.29" style="fill:#000000"/>
	<circle cx="2732.03" cy="2483.12" r="14.97" style="fill:none;stroke:#000000;stroke-width:8.64"/>
	<circle cx="2689.83" cy="2400.33" r="19.29" style="fill:#000000"/>
	<circle cx="2689.83" cy="2400.33" r="14.97" style="fill:none;stroke:#000000;stroke-width:8.64"/>
	<circle cx="2830.91" cy="2151.83" r="19.29" style="fill:#000000"/>
	<circle cx="2830.91" cy="2151.83" r="14.97" style="fill:none;stroke:#000000;stroke-width:8.64"/>
	<circle cx="2740.20" cy="2069.04" r="19.29" style="fill:#000000"/>
	<circle cx="2740.20" cy="2069.04" r="14.97" style="fill:none;stroke:#000000;stroke-width:8.64"/>
	<circle cx="2689.58" cy="1986.25" r="19.29" style="fill:#000000"/>
	<circle cx="2689.58" cy="1986.25" r="14.97" style="fill:none;stroke:#000000;stroke-width:8.64"/>
	<circle cx="2844.39" cy="1737.75" r="19.29" style="fill:#000000"/>
	<circle cx="2844.39" cy="1737.75" r="14.97" style="fill:none;stroke:#000000;stroke-width:8.64"/>
	<circle cx="2738.22" cy="1654.96" r="19.29" style="fill:#000000"/>
	<circle cx="2738.22" cy="1654.96" r="14.97" style="fill:none;stroke:#000000;stroke-width:8.64"/>
	<circle cx="2693.91" cy="1572.05" r="19.29" style="fill:#000000"/>
	<circle cx="2693.91" cy="1572.05" r="14.97" style="fill:none;stroke:#000000;stroke-width:8.64"/>
	<circle cx="2841.92" cy="1323.67" r="19.29" style="fill:#000000"/>
	<circle cx="2841.92" cy="1323.67" r="14.97" style="fill:none;stroke:#000000;stroke-width:8.64"/>
	<circle cx="2754.30" cy="1240.88" r="19.29" style="fill:#000000"/>
	<circle cx="2754.30" cy="1240.88" r="14.97" style="fill:none;stroke:#000000;stroke-width:8.64"/>
	<circle cx="2679.68" cy="1157.96" r="19.29" style="fill:#000000"/>
	<circle cx="2679.68" cy="1157.96" r="14.97" style="fill:none;stroke:#000000;stroke-width:8.64"/>
	<circle cx="2834.62" cy="909.59" r="19.29" style="fill:#000000"/>
	<circle cx="2834.62" cy="909.59" r="14.97" style="fill:none;stroke:#000000;stroke-width:8.64"/>
	<circle cx="2733.64" cy="826.80" r="19.29" style="fill:#000000"/>
	<circle cx="2733.64" cy="826.80" r="14.97" style="fill:none;stroke:#000000;stroke-width:8.64"/>
	<circle cx="2702.95" cy="743.88" r="19.29" style="fill:#000000"/>
	<circle cx="2702.95" cy="743.88" r="14.97" style="fill:none;stroke:#000000;stroke-width:8.64"/>
	<circle cx="2827.93" cy="495.51" r="19.29" style="fill:#000000"/>
	<circle cx="2827.93" cy="495.51" r="14.97" style="fill:none;stroke:#000000;stroke-width:8.64"/>
	<circle cx="2732.15" cy="412.72" r="19.29" style="fill:#000000"/>
	<circle cx="2732.15" cy="412.72" r="14.97" style="fill:none;stroke:#000000;stroke-width:8.64"/>
	<circle cx="2689.95" cy="329.80" r="19.29" style="fill:#000000"/>
	<circle cx="2689.95" cy="329.80" r="14.97" style="fill:none;stroke:#000000;stroke-width:8.64"/>
	<line x1="2744.53" y1="2565.79" x2="2910.72" y2="2565.79" style="stroke:#000000;stroke-width:8.64"/>
	<line x1="2910.72" y1="2587.82" x2="2910.72" y2="2543.76" stroke-linecap="round" style="stroke:#000000;stroke-width:8.64"/>
	<line x1="2744.53" y1="2587.82" x2="2744.53" y2="2543.76" stroke-linecap="round" style="stroke:#000000;stroke-width:8.64"/>
	<line x1="2657.66" y1="2483.00" x2="2806.53" y2="2483.00" style="stroke:#000000;stroke-width:8.64"/>
	<line x1="2806.53" y1="2505.03" x2="2806.53" y2="2460.97" stroke-linecap="round" style="stroke:#000000;stroke-width:8.64"/>
	<line x1="2657.66" y1="2505.03" x2="2657.66" y2="2460.97" stroke-linecap="round" style="stroke:#000000;stroke-width:8.64"/>
	<line x1="2620.41" y1="2400.21" x2="2759.38" y2="2400.21" style="stroke:#000000;stroke-width:8.64"/>
	<line x1="2759.38" y1="2422.23" x2="2759.38" y2="2378.18" stroke-linecap="round" style="stroke:#000000;stroke-width:8.64"/>
	<line x1="2620.41" y1="2422.23" x2="2620.41" y2="2378.18" stroke-linecap="round" style="stroke:#000000;stroke-width:8.64"/>
	<line x1="2746.38" y1="2151.71" x2="2915.67" y2="2151.71" style="stroke:#000000;stroke-width:8.64"/>
	<line x1="2915.67" y1="2173.74" x2="2915.67" y2="2129.68" stroke-linecap="round" style="stroke:#000000;stroke-width:8.64"/>
	<line x1="2746.38" y1="2173.74" x2="2746.38" y2="2129.68" stroke-linecap="round" style="stroke:#000000;stroke-width:8.64"/>
	<line x1="2664.96" y1="2068.92" x2="2815.56" y2="2068.92" style="stroke:#000000;stroke-width:8.64"/>
	<line x1="2815.56" y1="2090.95" x2="2815.56" y2="2046.89" stroke-linecap="round" style="stroke:#000000;stroke-width:8.64"/>
	<line x1="2664.96" y1="2090.95" x2="2664.96" y2="2046.89" stroke-linecap="round" style="stroke:#000000;stroke-width:8.64"/>
	<line x1="2618.55" y1="1986.13" x2="2760.61" y2="1986.13" style="stroke:#000000;stroke-width:8.64"/>
	<line x1="2760.61" y1="2008.15" x2="2760.61" y2="1964.10" stroke-linecap="round" style="stroke:#000000;stroke-width:8.64"/>
	<line x1="2618.55" y1="2008.15" x2="2618.55" y2="1964.10" stroke-linecap="round" style="stroke:#000000;stroke-width:8.64"/>
	<line x1="2759.75" y1="1737.63" x2="2929.16" y2="1737.63" style="stroke:#000000;stroke-width:8.64"/>
	<line x1="2929.16" y1="1759.66" x2="2929.16" y2="1715.60" stroke-linecap="round" style="stroke:#000000;stroke-width:8.64"/>
	<line x1="2759.75" y1="1759.66" x2="2759.75" y2="1715.60" stroke-linecap="round" style="stroke:#000000;stroke-width:8.64"/>
	<line x1="2663.35" y1="1654.84" x2="2813.21" y2="1654.84" style="stroke:#000000;stroke-width:8.64"/>
	<line x1="2813.21" y1="1676.86" x2="2813.21" y2="1632.81" stroke-linecap="round" style="stroke:#000000;stroke-width:8.64"/>
	<line x1="2663.35" y1="1676.86" x2="2663.35" y2="1632.81" stroke-linecap="round" style="stroke:#000000;stroke-width:8.64"/>
	<line x1="2624.37" y1="1572.05" x2="2763.59" y2="1572.05" style="stroke:#000000;stroke-width:8.64"/>
	<line x1="2763.59" y1="1594.07" x2="2763.59" y2="1550.02" stroke-linecap="round" style="stroke:#000000;stroke-width:8.64"/>
	<line x1="2624.37" y1="1594.07" x2="2624.37" y2="1550.02" stroke-linecap="round" style="stroke:#000000;stroke-width:8.64"/>
	<line x1="2731.04" y1="1323.55" x2="2952.80" y2="1323.55" style="stroke:#000000;stroke-width:8.64"/>
	<line x1="2952.80" y1="1345.58" x2="2952.80" y2="1301.52" stroke-linecap="round" style="stroke:#000000;stroke-width:8.64"/>
	<line x1="2731.04" y1="1345.58" x2="2731.04" y2="1301.52" stroke-linecap="round" style="stroke:#000000;stroke-width:8.64"/>
	<line x1="2655.06" y1="1240.76" x2="2853.68" y2="1240.76" style="stroke:#000000;stroke-width:8.64"/>
	<line x1="2853.68" y1="1262.78" x2="2853.68" y2="1218.73" stroke-linecap="round" style="stroke:#000000;stroke-width:8.64"/>
	<line x1="2655.06" y1="1262.78" x2="2655.06" y2="1218.73" stroke-linecap="round" style="stroke:#000000;stroke-width:8.64"/>
	<line x1="2584.64" y1="1157.96" x2="2774.85" y2="1157.96" style="stroke:#000000;stroke-width:8.64"/>
	<line x1="2774.85" y1="1179.99" x2="2774.85" y2="1135.94" stroke-linecap="round" style="stroke:#000000;stroke-width:8.64"/>
	<line x1="2584.64" y1="1179.99" x2="2584.64" y2="1135.94" stroke-linecap="round" style="stroke:#000000;stroke-width:8.64"/>
	<line x1="2745.27" y1="909.47" x2="2924.09" y2="909.47" style="stroke:#000000;stroke-width:8.64"/>
	<line x1="2924.09" y1="931.50" x2="2924.09" y2="887.44" stroke-linecap="round" style="stroke:#000000;stroke-width:8.64"/>
	<line x1="2745.27" y1="931.50" x2="2745.27" y2="887.44" stroke-linecap="round" style="stroke:#000000;stroke-width:8.64"/>
	<line x1="2654.93" y1="826.68" x2="2812.59" y2="826.68" style="stroke:#000000;stroke-width:8.64"/>
	<line x1="2812.59" y1="848.70" x2="2812.59" y2="804.65" stroke-linecap="round" style="stroke:#000000;stroke-width:8.64"/>
	<line x1="2654.93" y1="848.70" x2="2654.93" y2="804.65" stroke-linecap="round" style="stroke:#000000;stroke-width:8.64"/>
	<line x1="2629.07" y1="743.88" x2="2777.07" y2="743.88" style="stroke:#000000;stroke-width:8.64"/>
	<line x1="2777.07" y1="765.91" x2="2777.07" y2="721.86" stroke-linecap="round" style="stroke:#000000;stroke-width:8.64"/>
	<line x1="2629.07" y1="765.91" x2="2629.07" y2="721.86" stroke-linecap="round" style="stroke:#000000;stroke-width:8.64"/>
	<line x1="2744.90" y1="495.39" x2="2911.09" y2="495.39" style="stroke:#000000;stroke-width:8.64"/>
	<line x1="2911.09" y1="517.41" x2="2911.09" y2="473.36" stroke-linecap="round" style="stroke:#000000;stroke-width:8.64"/>
	<line x1="2744.90" y1="517.41" x2="2744.90" y2="473.36" stroke-linecap="round" style="stroke:#000000;stroke-width:8.64"/>
	<line x1="2657.78" y1="412.60" x2="2806.65" y2="412.60" style="stroke:#000000;stroke-width:8.64"/>
	<line x1="2806.65" y1="434.62" x2="2806.65" y2="390.57" stroke-linecap="round" style="stroke:#000000;stroke-width:8.64"/>
	<line x1="2657.78" y1="434.62" x2="2657.78" y2="390.57" stroke-linecap="round" style="stroke:#000000;stroke-width:8.64"/>
	<line x1="2620.53" y1="329.80" x2="2759.50" y2="329.80" style="stroke:#000000;stroke-width:8.64"/>
	<line x1="2759.50" y1="351.83" x2="2759.50" y2="307.78" stroke-linecap="round" style="stroke:#000000;stroke-width:8.64"/>
	<line x1="2620.53" y1="351.83" x2="2620.53" y2="307.78" stroke-linecap="round" style="stroke:#000000;stroke-width:8.64"/>
	<text x="236.12" y="2586.83" style="font-family:'Helvetica';font-size:60.02px;fill:#000000"></text>
	<text x="236.12" y="2504.04" style="font-family:'Helvetica';font-size:60.02px;fill:#000000"></text>
	<text x="236.12" y="2421.24" style="font-family:'Helvetica';font-size:60.02px;fill:#000000"></text>
	<text x="236.12" y="2338.45" style="font-family:'Helvetica';font-weight:bold;font-size:60.02px;fill:#000000">Non-proportional hazards fitted (N=9266918)</text>
	<text x="236.12" y="2255.66" style="font-family:'Helvetica';font-size:60.02px;fill:#000000"></text>
	<text x="236.12" y="2172.75" style="font-family:'Helvetica';font-size:60.02px;fill:#000000"></text>
	<text x="236.12" y="2089.96" style="font-family:'Helvetica';font-size:60.02px;fill:#000000"></text>
	<text x="236.12" y="2007.16" style="font-family:'Helvetica';font-size:60.02px;fill:#000000"></text>
	<text x="236.12" y="1924.37" style="font-family:'Helvetica';font-weight:bold;font-size:60.02px;fill:#000000">Participants with at least 12 months registration at GP  (N=8733512)</text>
	<text x="236.12" y="1841.58" style="font-family:'Helvetica';font-size:60.02px;fill:#000000"></text>
	<text x="236.12" y="1758.67" style="font-family:'Helvetica';font-size:60.02px;fill:#000000"></text>
	<text x="236.12" y="1675.87" style="font-family:'Helvetica';font-size:60.02px;fill:#000000"></text>
	<text x="236.12" y="1593.08" style="font-family:'Helvetica';font-size:60.02px;fill:#000000"></text>
	<text x="236.12" y="1510.29" style="font-family:'Helvetica';font-weight:bold;font-size:60.02px;fill:#000000">Underlying timescale in the cox model revised to age   (N=9266918)</text>
	<text x="236.12" y="1427.50" style="font-family:'Helvetica';font-size:60.02px;fill:#000000"></text>
	<text x="236.12" y="1344.59" style="font-family:'Helvetica';font-size:60.02px;fill:#000000"></text>
	<text x="236.12" y="1261.79" style="font-family:'Helvetica';font-size:60.02px;fill:#000000"></text>
	<text x="236.12" y="1179.00" style="font-family:'Helvetica';font-size:60.02px;fill:#000000"></text>
	<text x="236.12" y="1096.21" style="font-family:'Helvetica';font-weight:bold;font-size:60.02px;fill:#000000">Censor study at 1st November (N=)</text>
	<text x="236.12" y="1013.42" style="font-family:'Helvetica';font-size:60.02px;fill:#000000"></text>
	<text x="236.12" y="930.51" style="font-family:'Helvetica';font-size:60.02px;fill:#000000"></text>
	<text x="236.12" y="847.71" style="font-family:'Helvetica';font-size:60.02px;fill:#000000"></text>
	<text x="236.12" y="764.92" style="font-family:'Helvetica';font-size:60.02px;fill:#000000"></text>
	<text x="236.12" y="682.13" style="font-family:'Helvetica';font-weight:bold;font-size:60.02px;fill:#000000">Participants with complete BMI and smoking data  (N=7493196)</text>
	<text x="236.12" y="599.34" style="font-family:'Helvetica';font-size:60.02px;fill:#000000"></text>
	<text x="236.12" y="516.42" style="font-family:'Helvetica';font-size:60.02px;fill:#000000"></text>
	<text x="236.12" y="433.63" style="font-family:'Helvetica';font-size:60.02px;fill:#000000"></text>
	<text x="236.12" y="350.84" style="font-family:'Helvetica';font-size:60.02px;fill:#000000"></text>
	<text x="236.12" y="268.05" style="font-family:'Helvetica';font-weight:bold;font-size:60.02px;fill:#000000">Fully adjusted result  (N=9266918)</text>
	<text x="236.12" y="185.26" style="font-family:'Helvetica';font-size:60.02px;fill:#000000"></text>
	<text x="300.84" y="2586.83" style="font-family:'Helvetica';font-size:60.02px;fill:#000000">Children aged 0-11 years and ≥12 years</text>
	<text x="300.84" y="2504.04" style="font-family:'Helvetica';font-size:60.02px;fill:#000000">Only children aged ≥12 years</text>
	<text x="300.84" y="2421.24" style="font-family:'Helvetica';font-size:60.02px;fill:#000000">Only children aged 0-11 years</text>
	<text x="300.84" y="2172.75" style="font-family:'Helvetica';font-size:60.02px;fill:#000000">Children aged 0-11 years and ≥12 years</text>
	<text x="300.84" y="2089.96" style="font-family:'Helvetica';font-size:60.02px;fill:#000000">Only children aged ≥12 years</text>
	<text x="300.84" y="2007.16" style="font-family:'Helvetica';font-size:60.02px;fill:#000000">Only children aged 0-11 years</text>
	<text x="300.84" y="1758.67" style="font-family:'Helvetica';font-size:60.02px;fill:#000000">Children aged 0-11 years and ≥12 years</text>
	<text x="300.84" y="1675.87" style="font-family:'Helvetica';font-size:60.02px;fill:#000000">Only children aged ≥12 years</text>
	<text x="300.84" y="1593.08" style="font-family:'Helvetica';font-size:60.02px;fill:#000000">Only children aged 0-11 years</text>
	<text x="300.84" y="1344.59" style="font-family:'Helvetica';font-size:60.02px;fill:#000000">Children aged 0-11 years and ≥12 years</text>
	<text x="300.84" y="1261.79" style="font-family:'Helvetica';font-size:60.02px;fill:#000000">Only children aged ≥12 years</text>
	<text x="300.84" y="1179.00" style="font-family:'Helvetica';font-size:60.02px;fill:#000000">Only children aged 0-11 years</text>
	<text x="300.84" y="930.51" style="font-family:'Helvetica';font-size:60.02px;fill:#000000">Children aged 0-11 years and ≥12 years</text>
	<text x="300.84" y="847.71" style="font-family:'Helvetica';font-size:60.02px;fill:#000000">Only children aged ≥12 years</text>
	<text x="300.84" y="764.92" style="font-family:'Helvetica';font-size:60.02px;fill:#000000">Only children aged 0-11 years</text>
	<text x="300.84" y="516.42" style="font-family:'Helvetica';font-size:60.02px;fill:#000000">Children aged 0-11 years and ≥12 years</text>
	<text x="300.84" y="433.63" style="font-family:'Helvetica';font-size:60.02px;fill:#000000">Only children aged ≥12 years</text>
	<text x="300.84" y="350.84" style="font-family:'Helvetica';font-size:60.02px;fill:#000000">Only children aged 0-11 years</text>
	<text x="3242.62" y="2586.83" style="font-family:'Helvetica';font-size:60.02px;fill:#000000">1.44 (1.28-1.63)</text>
	<text x="3242.62" y="2504.04" style="font-family:'Helvetica';font-size:60.02px;fill:#000000">1.25 (1.12-1.40)</text>
	<text x="3242.62" y="2421.24" style="font-family:'Helvetica';font-size:60.02px;fill:#000000">1.18 (1.06-1.31)</text>
	<text x="3242.62" y="2172.75" style="font-family:'Helvetica';font-size:60.02px;fill:#000000">1.45 (1.28-1.64)</text>
	<text x="3242.62" y="2089.96" style="font-family:'Helvetica';font-size:60.02px;fill:#000000">1.27 (1.14-1.42)</text>
	<text x="3242.62" y="2007.16" style="font-family:'Helvetica';font-size:60.02px;fill:#000000">1.18 (1.06-1.31)</text>
	<text x="3242.62" y="1758.67" style="font-family:'Helvetica';font-size:60.02px;fill:#000000">1.48 (1.31-1.68)</text>
	<text x="3242.62" y="1675.87" style="font-family:'Helvetica';font-size:60.02px;fill:#000000">1.27 (1.13-1.41)</text>
	<text x="3242.62" y="1593.08" style="font-family:'Helvetica';font-size:60.02px;fill:#000000">1.19 (1.07-1.31)</text>
	<text x="3242.62" y="1344.59" style="font-family:'Helvetica';font-size:60.02px;fill:#000000">1.47 (1.25-1.74)</text>
	<text x="3242.62" y="1261.79" style="font-family:'Helvetica';font-size:60.02px;fill:#000000">1.30 (1.12-1.50)</text>
	<text x="3242.62" y="1179.00" style="font-family:'Helvetica';font-size:60.02px;fill:#000000">1.16 (1.01-1.34)</text>
	<text x="3242.62" y="930.51" style="font-family:'Helvetica';font-size:60.02px;fill:#000000">1.46 (1.28-1.66)</text>
	<text x="3242.62" y="847.71" style="font-family:'Helvetica';font-size:60.02px;fill:#000000">1.26 (1.12-1.41)</text>
	<text x="3242.62" y="764.92" style="font-family:'Helvetica';font-size:60.02px;fill:#000000">1.20 (1.08-1.34)</text>
	<text x="3242.62" y="516.42" style="font-family:'Helvetica';font-size:60.02px;fill:#000000">1.44 (1.28-1.63)</text>
	<text x="3242.62" y="433.63" style="font-family:'Helvetica';font-size:60.02px;fill:#000000">1.26 (1.12-1.40)</text>
	<text x="3242.62" y="350.84" style="font-family:'Helvetica';font-size:60.02px;fill:#000000">1.18 (1.06-1.31)</text>
	<text x="3242.62" y="2586.83" style="font-family:'Helvetica';font-size:60.02px;fill:#000000"></text>
	<text x="3242.62" y="2504.04" style="font-family:'Helvetica';font-size:60.02px;fill:#000000"></text>
	<text x="3242.62" y="2421.24" style="font-family:'Helvetica';font-size:60.02px;fill:#000000"></text>
	<text x="3242.62" y="2338.45" style="font-family:'Helvetica';font-size:60.02px;fill:#000000"></text>
	<text x="3242.62" y="2255.66" style="font-family:'Helvetica';font-size:60.02px;fill:#000000"></text>
	<text x="3242.62" y="2172.75" style="font-family:'Helvetica';font-size:60.02px;fill:#000000"></text>
	<text x="3242.62" y="2089.96" style="font-family:'Helvetica';font-size:60.02px;fill:#000000"></text>
	<text x="3242.62" y="2007.16" style="font-family:'Helvetica';font-size:60.02px;fill:#000000"></text>
	<text x="3242.62" y="1924.37" style="font-family:'Helvetica';font-size:60.02px;fill:#000000"></text>
	<text x="3242.62" y="1841.58" style="font-family:'Helvetica';font-size:60.02px;fill:#000000"></text>
	<text x="3242.62" y="1758.67" style="font-family:'Helvetica';font-size:60.02px;fill:#000000"></text>
	<text x="3242.62" y="1675.87" style="font-family:'Helvetica';font-size:60.02px;fill:#000000"></text>
	<text x="3242.62" y="1593.08" style="font-family:'Helvetica';font-size:60.02px;fill:#000000"></text>
	<text x="3242.62" y="1510.29" style="font-family:'Helvetica';font-size:60.02px;fill:#000000"></text>
	<text x="3242.62" y="1427.50" style="font-family:'Helvetica';font-size:60.02px;fill:#000000"></text>
	<text x="3242.62" y="1344.59" style="font-family:'Helvetica';font-size:60.02px;fill:#000000"></text>
	<text x="3242.62" y="1261.79" style="font-family:'Helvetica';font-size:60.02px;fill:#000000"></text>
	<text x="3242.62" y="1179.00" style="font-family:'Helvetica';font-size:60.02px;fill:#000000"></text>
	<text x="3242.62" y="1096.21" style="font-family:'Helvetica';font-size:60.02px;fill:#000000"></text>
	<text x="3242.62" y="1013.42" style="font-family:'Helvetica';font-size:60.02px;fill:#000000"></text>
	<text x="3242.62" y="930.51" style="font-family:'Helvetica';font-size:60.02px;fill:#000000"></text>
	<text x="3242.62" y="847.71" style="font-family:'Helvetica';font-size:60.02px;fill:#000000"></text>
	<text x="3242.62" y="764.92" style="font-family:'Helvetica';font-size:60.02px;fill:#000000"></text>
	<text x="3242.62" y="682.13" style="font-family:'Helvetica';font-size:60.02px;fill:#000000"></text>
	<text x="3242.62" y="599.34" style="font-family:'Helvetica';font-size:60.02px;fill:#000000"></text>
	<text x="3242.62" y="516.42" style="font-family:'Helvetica';font-size:60.02px;fill:#000000"></text>
	<text x="3242.62" y="433.63" style="font-family:'Helvetica';font-size:60.02px;fill:#000000"></text>
	<text x="3242.62" y="350.84" style="font-family:'Helvetica';font-weight:bold;font-size:60.02px;fill:#000000">Hazard Ratio (95% CI)</text>
	<text x="3242.62" y="268.05" style="font-family:'Helvetica';font-size:60.02px;fill:#000000"></text>
	<text x="3242.62" y="185.26" style="font-family:'Helvetica';font-size:60.02px;fill:#000000"></text>
	<text x="2002.89" y="2835.32" style="font-family:'Helvetica';font-size:60.02px;fill:#000000" text-anchor="middle">Lower risk in those living with children</text>
	<text x="3379.12" y="2835.32" style="font-family:'Helvetica';font-size:60.02px;fill:#000000" text-anchor="middle">Higher risk in those living with children</text>
	<line x1="130.80" y1="2629.15" x2="130.80" y2="100.86" style="stroke:#FFFFFF;stroke-width:5.76"/>
	<line x1="130.80" y1="2629.15" x2="3859.02" y2="2629.15" style="stroke:#000000;stroke-width:5.76"/>
	<line x1="2106.60" y1="2629.15" x2="2106.60" y2="2669.25" style="stroke:#000000;stroke-width:5.76"/>
	<text x="2106.60" y="2731.12" style="font-family:'Helvetica';font-size:60.02px;fill:#000000" text-anchor="middle">.5</text>
	<line x1="2577.71" y1="2629.15" x2="2577.71" y2="2669.25" style="stroke:#000000;stroke-width:5.76"/>
	<text x="2577.71" y="2731.12" style="font-family:'Helvetica';font-size:60.02px;fill:#000000" text-anchor="middle">1</text>
	<line x1="3048.95" y1="2629.15" x2="3048.95" y2="2669.25" style="stroke:#000000;stroke-width:5.76"/>
	<text x="3048.95" y="2731.12" style="font-family:'Helvetica';font-size:60.02px;fill:#000000" text-anchor="middle">2</text>
</svg>
