<?xml version="1.0" encoding="UTF-8" standalone="no"?>
<!-- This is a Stata 16.1 generated SVG file (http://www.stata.com) -->

<svg version="1.1" width="5.50in" height="4.00in" viewBox="0 0 3960 2880" xmlns="http://www.w3.org/2000/svg" xmlns:xlink="http://www.w3.org/1999/xlink">
	<desc>Stata Graph - Graph</desc>
	<rect x="0" y="0" width="3960" height="2880" style="fill:#EAF2F3;stroke:none"/>
	<rect x="0.00" y="0.00" width="3959.88" height="2880.00" style="fill:#FFFFFF"/>
	<rect x="2.88" y="2.88" width="3954.12" height="2874.24" style="fill:none;stroke:#FFFFFF;stroke-width:5.76"/>
	<rect x="130.80" y="100.86" width="3728.22" height="2528.29" style="fill:#FFFFFF"/>
	<rect x="133.68" y="103.74" width="3722.46" height="2522.53" style="fill:none;stroke:#FFFFFF;stroke-width:5.76"/>
	<line x1="2555.44" y1="2629.15" x2="2555.44" y2="100.86" style="stroke:#C10534;stroke-width:8.64"/>
	<circle cx="2576.23" cy="290.57" r="19.29" style="fill:#000000"/>
	<circle cx="2576.23" cy="290.57" r="14.97" style="fill:none;stroke:#000000;stroke-width:8.64"/>
	<circle cx="2611.25" cy="417.05" r="19.29" style="fill:#000000"/>
	<circle cx="2611.25" cy="417.05" r="14.97" style="fill:none;stroke:#000000;stroke-width:8.64"/>
	<circle cx="2691.19" cy="543.40" r="19.29" style="fill:#000000"/>
	<circle cx="2691.19" cy="543.40" r="14.97" style="fill:none;stroke:#000000;stroke-width:8.64"/>
	<circle cx="2673.62" cy="669.88" r="19.29" style="fill:#000000"/>
	<circle cx="2673.62" cy="669.88" r="14.97" style="fill:none;stroke:#000000;stroke-width:8.64"/>
	<circle cx="2700.60" cy="922.71" r="19.29" style="fill:#000000"/>
	<circle cx="2700.60" cy="922.71" r="14.97" style="fill:none;stroke:#000000;stroke-width:8.64"/>
	<circle cx="2646.89" cy="1049.06" r="19.29" style="fill:#000000"/>
	<circle cx="2646.89" cy="1049.06" r="14.97" style="fill:none;stroke:#000000;stroke-width:8.64"/>
	<circle cx="2711.36" cy="1175.41" r="19.29" style="fill:#000000"/>
	<circle cx="2711.36" cy="1175.41" r="14.97" style="fill:none;stroke:#000000;stroke-width:8.64"/>
	<circle cx="2774.47" cy="1301.89" r="19.29" style="fill:#000000"/>
	<circle cx="2774.47" cy="1301.89" r="14.97" style="fill:none;stroke:#000000;stroke-width:8.64"/>
	<circle cx="2748.36" cy="1554.72" r="19.29" style="fill:#000000"/>
	<circle cx="2748.36" cy="1554.72" r="14.97" style="fill:none;stroke:#000000;stroke-width:8.64"/>
	<circle cx="2625.36" cy="1681.07" r="19.29" style="fill:#000000"/>
	<circle cx="2625.36" cy="1681.07" r="14.97" style="fill:none;stroke:#000000;stroke-width:8.64"/>
	<circle cx="2641.20" cy="1807.43" r="19.29" style="fill:#000000"/>
	<circle cx="2641.20" cy="1807.43" r="14.97" style="fill:none;stroke:#000000;stroke-width:8.64"/>
	<circle cx="2688.34" cy="1933.90" r="19.29" style="fill:#000000"/>
	<circle cx="2688.34" cy="1933.90" r="14.97" style="fill:none;stroke:#000000;stroke-width:8.64"/>
	<circle cx="2314.12" cy="2186.73" r="19.29" style="fill:#000000"/>
	<circle cx="2314.12" cy="2186.73" r="14.97" style="fill:none;stroke:#000000;stroke-width:8.64"/>
	<circle cx="1621.12" cy="2313.08" r="19.29" style="fill:#000000"/>
	<circle cx="1621.12" cy="2313.08" r="14.97" style="fill:none;stroke:#000000;stroke-width:8.64"/>
	<circle cx="2536.63" cy="2439.56" r="19.29" style="fill:#000000"/>
	<circle cx="2536.63" cy="2439.56" r="14.97" style="fill:none;stroke:#000000;stroke-width:8.64"/>
	<circle cx="2457.18" cy="2565.91" r="19.29" style="fill:#000000"/>
	<circle cx="2457.18" cy="2565.91" r="14.97" style="fill:none;stroke:#000000;stroke-width:8.64"/>
	<line x1="2562.37" y1="290.57" x2="2590.09" y2="290.57" style="stroke:#000000;stroke-width:8.64"/>
	<line x1="2590.09" y1="312.60" x2="2590.09" y2="268.55" stroke-linecap="round" style="stroke:#000000;stroke-width:8.64"/>
	<line x1="2562.37" y1="312.60" x2="2562.37" y2="268.55" stroke-linecap="round" style="stroke:#000000;stroke-width:8.64"/>
	<line x1="2599.74" y1="416.93" x2="2622.88" y2="416.93" style="stroke:#000000;stroke-width:8.64"/>
	<line x1="2622.88" y1="438.95" x2="2622.88" y2="394.90" stroke-linecap="round" style="stroke:#000000;stroke-width:8.64"/>
	<line x1="2599.74" y1="438.95" x2="2599.74" y2="394.90" stroke-linecap="round" style="stroke:#000000;stroke-width:8.64"/>
	<line x1="2680.67" y1="543.40" x2="2701.83" y2="543.40" style="stroke:#000000;stroke-width:8.64"/>
	<line x1="2701.83" y1="565.43" x2="2701.83" y2="521.38" stroke-linecap="round" style="stroke:#000000;stroke-width:8.64"/>
	<line x1="2680.67" y1="565.43" x2="2680.67" y2="521.38" stroke-linecap="round" style="stroke:#000000;stroke-width:8.64"/>
	<line x1="2663.72" y1="669.76" x2="2683.64" y2="669.76" style="stroke:#000000;stroke-width:8.64"/>
	<line x1="2683.64" y1="691.78" x2="2683.64" y2="647.73" stroke-linecap="round" style="stroke:#000000;stroke-width:8.64"/>
	<line x1="2663.72" y1="691.78" x2="2663.72" y2="647.73" stroke-linecap="round" style="stroke:#000000;stroke-width:8.64"/>
	<line x1="2587.74" y1="922.59" x2="2813.58" y2="922.59" style="stroke:#000000;stroke-width:8.64"/>
	<line x1="2813.58" y1="944.61" x2="2813.58" y2="900.56" stroke-linecap="round" style="stroke:#000000;stroke-width:8.64"/>
	<line x1="2587.74" y1="944.61" x2="2587.74" y2="900.56" stroke-linecap="round" style="stroke:#000000;stroke-width:8.64"/>
	<line x1="2552.84" y1="1048.94" x2="2741.06" y2="1048.94" style="stroke:#000000;stroke-width:8.64"/>
	<line x1="2741.06" y1="1070.97" x2="2741.06" y2="1026.91" stroke-linecap="round" style="stroke:#000000;stroke-width:8.64"/>
	<line x1="2552.84" y1="1070.97" x2="2552.84" y2="1026.91" stroke-linecap="round" style="stroke:#000000;stroke-width:8.64"/>
	<line x1="2635.63" y1="1175.41" x2="2787.22" y2="1175.41" style="stroke:#000000;stroke-width:8.64"/>
	<line x1="2787.22" y1="1197.44" x2="2787.22" y2="1153.39" stroke-linecap="round" style="stroke:#000000;stroke-width:8.64"/>
	<line x1="2635.63" y1="1197.44" x2="2635.63" y2="1153.39" stroke-linecap="round" style="stroke:#000000;stroke-width:8.64"/>
	<line x1="2698.74" y1="1301.77" x2="2850.46" y2="1301.77" style="stroke:#000000;stroke-width:8.64"/>
	<line x1="2850.46" y1="1323.80" x2="2850.46" y2="1279.74" stroke-linecap="round" style="stroke:#000000;stroke-width:8.64"/>
	<line x1="2698.74" y1="1323.80" x2="2698.74" y2="1279.74" stroke-linecap="round" style="stroke:#000000;stroke-width:8.64"/>
	<line x1="2544.18" y1="1554.60" x2="2952.68" y2="1554.60" style="stroke:#000000;stroke-width:8.64"/>
	<line x1="2952.68" y1="1576.62" x2="2952.68" y2="1532.57" stroke-linecap="round" style="stroke:#000000;stroke-width:8.64"/>
	<line x1="2544.18" y1="1576.62" x2="2544.18" y2="1532.57" stroke-linecap="round" style="stroke:#000000;stroke-width:8.64"/>
	<line x1="2450.50" y1="1681.07" x2="2800.46" y2="1681.07" style="stroke:#000000;stroke-width:8.64"/>
	<line x1="2800.46" y1="1703.10" x2="2800.46" y2="1659.04" stroke-linecap="round" style="stroke:#000000;stroke-width:8.64"/>
	<line x1="2450.50" y1="1703.10" x2="2450.50" y2="1659.04" stroke-linecap="round" style="stroke:#000000;stroke-width:8.64"/>
	<line x1="2501.85" y1="1807.43" x2="2780.54" y2="1807.43" style="stroke:#000000;stroke-width:8.64"/>
	<line x1="2780.54" y1="1829.45" x2="2780.54" y2="1785.40" stroke-linecap="round" style="stroke:#000000;stroke-width:8.64"/>
	<line x1="2501.85" y1="1829.45" x2="2501.85" y2="1785.40" stroke-linecap="round" style="stroke:#000000;stroke-width:8.64"/>
	<line x1="2543.19" y1="1933.78" x2="2833.63" y2="1933.78" style="stroke:#000000;stroke-width:8.64"/>
	<line x1="2833.63" y1="1955.81" x2="2833.63" y2="1911.75" stroke-linecap="round" style="stroke:#000000;stroke-width:8.64"/>
	<line x1="2543.19" y1="1955.81" x2="2543.19" y2="1911.75" stroke-linecap="round" style="stroke:#000000;stroke-width:8.64"/>
	<line x1="1895.36" y1="2186.61" x2="2733.14" y2="2186.61" style="stroke:#000000;stroke-width:8.64"/>
	<line x1="2733.14" y1="2208.64" x2="2733.14" y2="2164.58" stroke-linecap="round" style="stroke:#000000;stroke-width:8.64"/>
	<line x1="1895.36" y1="2208.64" x2="1895.36" y2="2164.58" stroke-linecap="round" style="stroke:#000000;stroke-width:8.64"/>
	<line x1="1090.98" y1="2313.08" x2="2151.52" y2="2313.08" style="stroke:#000000;stroke-width:8.64"/>
	<line x1="2151.52" y1="2335.11" x2="2151.52" y2="2291.06" stroke-linecap="round" style="stroke:#000000;stroke-width:8.64"/>
	<line x1="1090.98" y1="2335.11" x2="1090.98" y2="2291.06" stroke-linecap="round" style="stroke:#000000;stroke-width:8.64"/>
	<line x1="2319.45" y1="2439.44" x2="2754.06" y2="2439.44" style="stroke:#000000;stroke-width:8.64"/>
	<line x1="2754.06" y1="2461.46" x2="2754.06" y2="2417.41" stroke-linecap="round" style="stroke:#000000;stroke-width:8.64"/>
	<line x1="2319.45" y1="2461.46" x2="2319.45" y2="2417.41" stroke-linecap="round" style="stroke:#000000;stroke-width:8.64"/>
	<line x1="2193.96" y1="2565.79" x2="2720.64" y2="2565.79" style="stroke:#000000;stroke-width:8.64"/>
	<line x1="2720.64" y1="2587.82" x2="2720.64" y2="2543.76" stroke-linecap="round" style="stroke:#000000;stroke-width:8.64"/>
	<line x1="2193.96" y1="2587.82" x2="2193.96" y2="2543.76" stroke-linecap="round" style="stroke:#000000;stroke-width:8.64"/>
	<text x="236.12" y="185.26" style="font-family:'Helvetica';font-weight:bold;font-size:60.02px;fill:#000000">Reported SARS-CoV-2 infection</text>
	<text x="236.12" y="311.61" style="font-family:'Helvetica';font-size:60.02px;fill:#000000"></text>
	<text x="236.12" y="437.96" style="font-family:'Helvetica';font-size:60.02px;fill:#000000"></text>
	<text x="236.12" y="564.44" style="font-family:'Helvetica';font-size:60.02px;fill:#000000"></text>
	<text x="236.12" y="690.79" style="font-family:'Helvetica';font-size:60.02px;fill:#000000"></text>
	<text x="236.12" y="817.27" style="font-family:'Helvetica';font-weight:bold;font-size:60.02px;fill:#000000">COVID-19 hospital admission</text>
	<text x="236.12" y="943.62" style="font-family:'Helvetica';font-size:60.02px;fill:#000000"></text>
	<text x="236.12" y="1069.98" style="font-family:'Helvetica';font-size:60.02px;fill:#000000"></text>
	<text x="236.12" y="1196.45" style="font-family:'Helvetica';font-size:60.02px;fill:#000000"></text>
	<text x="236.12" y="1322.81" style="font-family:'Helvetica';font-size:60.02px;fill:#000000"></text>
	<text x="236.12" y="1449.28" style="font-family:'Helvetica';font-weight:bold;font-size:60.02px;fill:#000000">COVID-19 ICU admission</text>
	<text x="236.12" y="1575.63" style="font-family:'Helvetica';font-size:60.02px;fill:#000000"></text>
	<text x="236.12" y="1702.11" style="font-family:'Helvetica';font-size:60.02px;fill:#000000"></text>
	<text x="236.12" y="1828.46" style="font-family:'Helvetica';font-size:60.02px;fill:#000000"></text>
	<text x="236.12" y="1954.82" style="font-family:'Helvetica';font-size:60.02px;fill:#000000"></text>
	<text x="236.12" y="2081.29" style="font-family:'Helvetica';font-weight:bold;font-size:60.02px;fill:#000000">COVID-19 death</text>
	<text x="236.12" y="2207.65" style="font-family:'Helvetica';font-size:60.02px;fill:#000000"></text>
	<text x="236.12" y="2334.12" style="font-family:'Helvetica';font-size:60.02px;fill:#000000"></text>
	<text x="236.12" y="2460.47" style="font-family:'Helvetica';font-size:60.02px;fill:#000000"></text>
	<text x="236.12" y="2586.83" style="font-family:'Helvetica';font-size:60.02px;fill:#000000"></text>
	<text x="369.27" y="311.61" style="font-family:'Helvetica';font-size:60.02px;fill:#000000">Only children aged 0-4 years</text>
	<text x="369.27" y="437.96" style="font-family:'Helvetica';font-size:60.02px;fill:#000000">Only children aged 5-11 years</text>
	<text x="369.27" y="564.44" style="font-family:'Helvetica';font-size:60.02px;fill:#000000">Only children aged ≥12 years</text>
	<text x="369.27" y="690.79" style="font-family:'Helvetica';font-size:60.02px;fill:#000000">Children in a least 2 of above age categories</text>
	<text x="369.27" y="943.62" style="font-family:'Helvetica';font-size:60.02px;fill:#000000">Only children aged 0-4 years</text>
	<text x="369.27" y="1069.98" style="font-family:'Helvetica';font-size:60.02px;fill:#000000">Only children aged 5-11 years</text>
	<text x="369.27" y="1196.45" style="font-family:'Helvetica';font-size:60.02px;fill:#000000">Only children aged ≥12 years</text>
	<text x="369.27" y="1322.81" style="font-family:'Helvetica';font-size:60.02px;fill:#000000">Children in a least 2 of above age categories</text>
	<text x="369.27" y="1575.63" style="font-family:'Helvetica';font-size:60.02px;fill:#000000">Only children aged 0-4 years</text>
	<text x="369.27" y="1702.11" style="font-family:'Helvetica';font-size:60.02px;fill:#000000">Only children aged 5-11 years</text>
	<text x="369.27" y="1828.46" style="font-family:'Helvetica';font-size:60.02px;fill:#000000">Only children aged ≥12 years</text>
	<text x="369.27" y="1954.82" style="font-family:'Helvetica';font-size:60.02px;fill:#000000">Children in a least 2 of above age categories</text>
	<text x="369.27" y="2207.65" style="font-family:'Helvetica';font-size:60.02px;fill:#000000">Only children aged 0-4 years</text>
	<text x="369.27" y="2334.12" style="font-family:'Helvetica';font-size:60.02px;fill:#000000">Only children aged 5-11 years</text>
	<text x="369.27" y="2460.47" style="font-family:'Helvetica';font-size:60.02px;fill:#000000">Only children aged ≥12 years</text>
	<text x="369.27" y="2586.83" style="font-family:'Helvetica';font-size:60.02px;fill:#000000">Children in a least 2 of above age categories</text>
	<text x="3357.83" y="311.61" style="font-family:'Helvetica';font-size:60.02px;fill:#000000">1.03 (1.01-1.05)</text>
	<text x="3357.83" y="437.96" style="font-family:'Helvetica';font-size:60.02px;fill:#000000">1.08 (1.07-1.10)</text>
	<text x="3357.83" y="564.44" style="font-family:'Helvetica';font-size:60.02px;fill:#000000">1.22 (1.20-1.24)</text>
	<text x="3357.83" y="690.79" style="font-family:'Helvetica';font-size:60.02px;fill:#000000">1.19 (1.17-1.20)</text>
	<text x="3357.83" y="943.62" style="font-family:'Helvetica';font-size:60.02px;fill:#000000">1.23 (1.05-1.45)</text>
	<text x="3357.83" y="1069.98" style="font-family:'Helvetica';font-size:60.02px;fill:#000000">1.14 (1.00-1.31)</text>
	<text x="3357.83" y="1196.45" style="font-family:'Helvetica';font-size:60.02px;fill:#000000">1.25 (1.12-1.40)</text>
	<text x="3357.83" y="1322.81" style="font-family:'Helvetica';font-size:60.02px;fill:#000000">1.37 (1.23-1.53)</text>
	<text x="3357.83" y="1575.63" style="font-family:'Helvetica';font-size:60.02px;fill:#000000">1.32 (0.98-1.78)</text>
	<text x="3357.83" y="1702.11" style="font-family:'Helvetica';font-size:60.02px;fill:#000000">1.11 (0.86-1.42)</text>
	<text x="3357.83" y="1828.46" style="font-family:'Helvetica';font-size:60.02px;fill:#000000">1.13 (0.93-1.38)</text>
	<text x="3357.83" y="1954.82" style="font-family:'Helvetica';font-size:60.02px;fill:#000000">1.21 (0.98-1.49)</text>
	<text x="3357.83" y="2207.65" style="font-family:'Helvetica';font-size:60.02px;fill:#000000">0.71 (0.39-1.29)</text>
	<text x="3357.83" y="2334.12" style="font-family:'Helvetica';font-size:60.02px;fill:#000000">0.26 (0.12-0.56)</text>
	<text x="3357.83" y="2460.47" style="font-family:'Helvetica';font-size:60.02px;fill:#000000">0.97 (0.71-1.33)</text>
	<text x="3357.83" y="2586.83" style="font-family:'Helvetica';font-size:60.02px;fill:#000000">0.87 (0.59-1.27)</text>
	<text x="3357.83" y="185.26" style="font-family:'Helvetica';font-size:60.02px;fill:#000000"></text>
	<text x="3357.83" y="311.61" style="font-family:'Helvetica';font-size:60.02px;fill:#000000"></text>
	<text x="3357.83" y="437.96" style="font-family:'Helvetica';font-size:60.02px;fill:#000000"></text>
	<text x="3357.83" y="564.44" style="font-family:'Helvetica';font-size:60.02px;fill:#000000"></text>
	<text x="3357.83" y="690.79" style="font-family:'Helvetica';font-size:60.02px;fill:#000000"></text>
	<text x="3357.83" y="817.27" style="font-family:'Helvetica';font-size:60.02px;fill:#000000"></text>
	<text x="3357.83" y="943.62" style="font-family:'Helvetica';font-size:60.02px;fill:#000000"></text>
	<text x="3357.83" y="1069.98" style="font-family:'Helvetica';font-size:60.02px;fill:#000000"></text>
	<text x="3357.83" y="1196.45" style="font-family:'Helvetica';font-size:60.02px;fill:#000000"></text>
	<text x="3357.83" y="1322.81" style="font-family:'Helvetica';font-size:60.02px;fill:#000000"></text>
	<text x="3357.83" y="1449.28" style="font-family:'Helvetica';font-size:60.02px;fill:#000000"></text>
	<text x="3357.83" y="1575.63" style="font-family:'Helvetica';font-size:60.02px;fill:#000000"></text>
	<text x="3357.83" y="1702.11" style="font-family:'Helvetica';font-size:60.02px;fill:#000000"></text>
	<text x="3357.83" y="1828.46" style="font-family:'Helvetica';font-size:60.02px;fill:#000000"></text>
	<text x="3357.83" y="1954.82" style="font-family:'Helvetica';font-size:60.02px;fill:#000000"></text>
	<text x="3357.83" y="2081.29" style="font-family:'Helvetica';font-size:60.02px;fill:#000000"></text>
	<text x="3357.83" y="2207.65" style="font-family:'Helvetica';font-size:60.02px;fill:#000000"></text>
	<text x="3357.83" y="2334.12" style="font-family:'Helvetica';font-size:60.02px;fill:#000000"></text>
	<text x="3357.83" y="2460.47" style="font-family:'Helvetica';font-size:60.02px;fill:#000000"></text>
	<text x="3357.83" y="2586.83" style="font-family:'Helvetica';font-size:60.02px;fill:#000000"></text>
	<text x="1480.67" y="2776.54" style="font-family:'Helvetica';font-size:60.02px;fill:#000000" text-anchor="middle">Lower risk in those living with children</text>
	<text x="3361.79" y="2776.54" style="font-family:'Helvetica';font-size:60.02px;fill:#000000" text-anchor="middle">Higher risk in those living with children</text>
	<line x1="130.80" y1="2629.15" x2="130.80" y2="100.86" style="stroke:#FFFFFF;stroke-width:5.76"/>
	<line x1="130.80" y1="2629.15" x2="3859.02" y2="2629.15" style="stroke:#000000;stroke-width:5.76"/>
	<line x1="2075.66" y1="2629.15" x2="2075.66" y2="2669.25" style="stroke:#000000;stroke-width:5.76"/>
	<text x="2075.66" y="2731.12" style="font-family:'Helvetica';font-size:60.02px;fill:#000000" text-anchor="middle">.5</text>
	<line x1="2555.44" y1="2629.15" x2="2555.44" y2="2669.25" style="stroke:#000000;stroke-width:5.76"/>
	<text x="2555.44" y="2731.12" style="font-family:'Helvetica';font-size:60.02px;fill:#000000" text-anchor="middle">1</text>
	<line x1="3035.22" y1="2629.15" x2="3035.22" y2="2669.25" style="stroke:#000000;stroke-width:5.76"/>
	<text x="3035.22" y="2731.12" style="font-family:'Helvetica';font-size:60.02px;fill:#000000" text-anchor="middle">2</text>
</svg>
