<?xml version="1.0" encoding="UTF-8" standalone="no"?>
<!-- This is a Stata 16.1 generated SVG file (http://www.stata.com) -->

<svg version="1.1" width="5.50in" height="4.00in" viewBox="0 0 3960 2880" xmlns="http://www.w3.org/2000/svg" xmlns:xlink="http://www.w3.org/1999/xlink">
	<desc>Stata Graph - Graph</desc>
	<rect x="0" y="0" width="3960" height="2880" style="fill:#EAF2F3;stroke:none"/>
	<rect x="0.00" y="0.00" width="3959.88" height="2880.00" style="fill:#FFFFFF"/>
	<rect x="2.88" y="2.88" width="3954.12" height="2874.24" style="fill:none;stroke:#FFFFFF;stroke-width:5.76"/>
	<rect x="130.80" y="100.86" width="3728.22" height="2528.29" style="fill:#FFFFFF"/>
	<rect x="133.68" y="103.74" width="3722.46" height="2522.53" style="fill:none;stroke:#FFFFFF;stroke-width:5.76"/>
	<line x1="2555.44" y1="2629.15" x2="2555.44" y2="100.86" style="stroke:#C10534;stroke-width:8.64"/>
	<circle cx="2547.89" cy="290.57" r="19.29" style="fill:#000000"/>
	<circle cx="2547.89" cy="290.57" r="14.97" style="fill:none;stroke:#000000;stroke-width:8.64"/>
	<circle cx="2581.67" cy="417.05" r="19.29" style="fill:#000000"/>
	<circle cx="2581.67" cy="417.05" r="14.97" style="fill:none;stroke:#000000;stroke-width:8.64"/>
	<circle cx="2499.26" cy="543.40" r="19.29" style="fill:#000000"/>
	<circle cx="2499.26" cy="543.40" r="14.97" style="fill:none;stroke:#000000;stroke-width:8.64"/>
	<circle cx="2659.51" cy="669.88" r="19.29" style="fill:#000000"/>
	<circle cx="2659.51" cy="669.88" r="14.97" style="fill:none;stroke:#000000;stroke-width:8.64"/>
	<circle cx="2570.66" cy="922.71" r="19.29" style="fill:#000000"/>
	<circle cx="2570.66" cy="922.71" r="14.97" style="fill:none;stroke:#000000;stroke-width:8.64"/>
	<circle cx="2554.70" cy="1049.06" r="19.29" style="fill:#000000"/>
	<circle cx="2554.70" cy="1049.06" r="14.97" style="fill:none;stroke:#000000;stroke-width:8.64"/>
	<circle cx="2578.58" cy="1175.41" r="19.29" style="fill:#000000"/>
	<circle cx="2578.58" cy="1175.41" r="14.97" style="fill:none;stroke:#000000;stroke-width:8.64"/>
	<circle cx="2681.04" cy="1301.89" r="19.29" style="fill:#000000"/>
	<circle cx="2681.04" cy="1301.89" r="14.97" style="fill:none;stroke:#000000;stroke-width:8.64"/>
	<circle cx="2129.24" cy="1554.72" r="19.29" style="fill:#000000"/>
	<circle cx="2129.24" cy="1554.72" r="14.97" style="fill:none;stroke:#000000;stroke-width:8.64"/>
	<circle cx="2865.18" cy="1681.07" r="19.29" style="fill:#000000"/>
	<circle cx="2865.18" cy="1681.07" r="14.97" style="fill:none;stroke:#000000;stroke-width:8.64"/>
	<circle cx="2715.32" cy="1807.43" r="19.29" style="fill:#000000"/>
	<circle cx="2715.32" cy="1807.43" r="14.97" style="fill:none;stroke:#000000;stroke-width:8.64"/>
	<circle cx="2445.18" cy="1933.90" r="19.29" style="fill:#000000"/>
	<circle cx="2445.18" cy="1933.90" r="14.97" style="fill:none;stroke:#000000;stroke-width:8.64"/>
	<circle cx="2532.79" cy="2186.73" r="19.29" style="fill:#000000"/>
	<circle cx="2532.79" cy="2186.73" r="14.97" style="fill:none;stroke:#000000;stroke-width:8.64"/>
	<circle cx="2343.08" cy="2313.08" r="19.29" style="fill:#000000"/>
	<circle cx="2343.08" cy="2313.08" r="14.97" style="fill:none;stroke:#000000;stroke-width:8.64"/>
	<circle cx="2404.34" cy="2439.56" r="19.29" style="fill:#000000"/>
	<circle cx="2404.34" cy="2439.56" r="14.97" style="fill:none;stroke:#000000;stroke-width:8.64"/>
	<circle cx="2512.99" cy="2565.91" r="19.29" style="fill:#000000"/>
	<circle cx="2512.99" cy="2565.91" r="14.97" style="fill:none;stroke:#000000;stroke-width:8.64"/>
	<line x1="2416.71" y1="290.57" x2="2679.06" y2="290.57" style="stroke:#000000;stroke-width:8.64"/>
	<line x1="2679.06" y1="312.60" x2="2679.06" y2="268.55" stroke-linecap="round" style="stroke:#000000;stroke-width:8.64"/>
	<line x1="2416.71" y1="312.60" x2="2416.71" y2="268.55" stroke-linecap="round" style="stroke:#000000;stroke-width:8.64"/>
	<line x1="2474.51" y1="416.93" x2="2689.09" y2="416.93" style="stroke:#000000;stroke-width:8.64"/>
	<line x1="2689.09" y1="438.95" x2="2689.09" y2="394.90" stroke-linecap="round" style="stroke:#000000;stroke-width:8.64"/>
	<line x1="2474.51" y1="438.95" x2="2474.51" y2="394.90" stroke-linecap="round" style="stroke:#000000;stroke-width:8.64"/>
	<line x1="2403.97" y1="543.40" x2="2594.54" y2="543.40" style="stroke:#000000;stroke-width:8.64"/>
	<line x1="2594.54" y1="565.43" x2="2594.54" y2="521.38" stroke-linecap="round" style="stroke:#000000;stroke-width:8.64"/>
	<line x1="2403.97" y1="565.43" x2="2403.97" y2="521.38" stroke-linecap="round" style="stroke:#000000;stroke-width:8.64"/>
	<line x1="2568.43" y1="669.76" x2="2750.72" y2="669.76" style="stroke:#000000;stroke-width:8.64"/>
	<line x1="2750.72" y1="691.78" x2="2750.72" y2="647.73" stroke-linecap="round" style="stroke:#000000;stroke-width:8.64"/>
	<line x1="2568.43" y1="691.78" x2="2568.43" y2="647.73" stroke-linecap="round" style="stroke:#000000;stroke-width:8.64"/>
	<line x1="2385.65" y1="922.59" x2="2755.79" y2="922.59" style="stroke:#000000;stroke-width:8.64"/>
	<line x1="2755.79" y1="944.61" x2="2755.79" y2="900.56" stroke-linecap="round" style="stroke:#000000;stroke-width:8.64"/>
	<line x1="2385.65" y1="944.61" x2="2385.65" y2="900.56" stroke-linecap="round" style="stroke:#000000;stroke-width:8.64"/>
	<line x1="2399.64" y1="1048.94" x2="2709.75" y2="1048.94" style="stroke:#000000;stroke-width:8.64"/>
	<line x1="2709.75" y1="1070.97" x2="2709.75" y2="1026.91" stroke-linecap="round" style="stroke:#000000;stroke-width:8.64"/>
	<line x1="2399.64" y1="1070.97" x2="2399.64" y2="1026.91" stroke-linecap="round" style="stroke:#000000;stroke-width:8.64"/>
	<line x1="2449.01" y1="1175.41" x2="2708.14" y2="1175.41" style="stroke:#000000;stroke-width:8.64"/>
	<line x1="2708.14" y1="1197.44" x2="2708.14" y2="1153.39" stroke-linecap="round" style="stroke:#000000;stroke-width:8.64"/>
	<line x1="2449.01" y1="1197.44" x2="2449.01" y2="1153.39" stroke-linecap="round" style="stroke:#000000;stroke-width:8.64"/>
	<line x1="2552.72" y1="1301.77" x2="2809.62" y2="1301.77" style="stroke:#000000;stroke-width:8.64"/>
	<line x1="2809.62" y1="1323.80" x2="2809.62" y2="1279.74" stroke-linecap="round" style="stroke:#000000;stroke-width:8.64"/>
	<line x1="2552.72" y1="1323.80" x2="2552.72" y2="1279.74" stroke-linecap="round" style="stroke:#000000;stroke-width:8.64"/>
	<line x1="1445.52" y1="1554.60" x2="2813.09" y2="1554.60" style="stroke:#000000;stroke-width:8.64"/>
	<line x1="2813.09" y1="1576.62" x2="2813.09" y2="1532.57" stroke-linecap="round" style="stroke:#000000;stroke-width:8.64"/>
	<line x1="1445.52" y1="1576.62" x2="1445.52" y2="1532.57" stroke-linecap="round" style="stroke:#000000;stroke-width:8.64"/>
	<line x1="2517.45" y1="1681.07" x2="3213.17" y2="1681.07" style="stroke:#000000;stroke-width:8.64"/>
	<line x1="3213.17" y1="1703.10" x2="3213.17" y2="1659.04" stroke-linecap="round" style="stroke:#000000;stroke-width:8.64"/>
	<line x1="2517.45" y1="1703.10" x2="2517.45" y2="1659.04" stroke-linecap="round" style="stroke:#000000;stroke-width:8.64"/>
	<line x1="2357.44" y1="1807.43" x2="3073.33" y2="1807.43" style="stroke:#000000;stroke-width:8.64"/>
	<line x1="3073.33" y1="1829.45" x2="3073.33" y2="1785.40" stroke-linecap="round" style="stroke:#000000;stroke-width:8.64"/>
	<line x1="2357.44" y1="1829.45" x2="2357.44" y2="1785.40" stroke-linecap="round" style="stroke:#000000;stroke-width:8.64"/>
	<line x1="2021.46" y1="1933.78" x2="2869.02" y2="1933.78" style="stroke:#000000;stroke-width:8.64"/>
	<line x1="2869.02" y1="1955.81" x2="2869.02" y2="1911.75" stroke-linecap="round" style="stroke:#000000;stroke-width:8.64"/>
	<line x1="2021.46" y1="1955.81" x2="2021.46" y2="1911.75" stroke-linecap="round" style="stroke:#000000;stroke-width:8.64"/>
	<line x1="2302.24" y1="2186.61" x2="2763.46" y2="2186.61" style="stroke:#000000;stroke-width:8.64"/>
	<line x1="2763.46" y1="2208.64" x2="2763.46" y2="2164.58" stroke-linecap="round" style="stroke:#000000;stroke-width:8.64"/>
	<line x1="2302.24" y1="2208.64" x2="2302.24" y2="2164.58" stroke-linecap="round" style="stroke:#000000;stroke-width:8.64"/>
	<line x1="2127.76" y1="2313.08" x2="2558.53" y2="2313.08" style="stroke:#000000;stroke-width:8.64"/>
	<line x1="2558.53" y1="2335.11" x2="2558.53" y2="2291.06" stroke-linecap="round" style="stroke:#000000;stroke-width:8.64"/>
	<line x1="2127.76" y1="2335.11" x2="2127.76" y2="2291.06" stroke-linecap="round" style="stroke:#000000;stroke-width:8.64"/>
	<line x1="2229.11" y1="2439.44" x2="2579.69" y2="2439.44" style="stroke:#000000;stroke-width:8.64"/>
	<line x1="2579.69" y1="2461.46" x2="2579.69" y2="2417.41" stroke-linecap="round" style="stroke:#000000;stroke-width:8.64"/>
	<line x1="2229.11" y1="2461.46" x2="2229.11" y2="2417.41" stroke-linecap="round" style="stroke:#000000;stroke-width:8.64"/>
	<line x1="2340.98" y1="2565.79" x2="2685.13" y2="2565.79" style="stroke:#000000;stroke-width:8.64"/>
	<line x1="2685.13" y1="2587.82" x2="2685.13" y2="2543.76" stroke-linecap="round" style="stroke:#000000;stroke-width:8.64"/>
	<line x1="2340.98" y1="2587.82" x2="2340.98" y2="2543.76" stroke-linecap="round" style="stroke:#000000;stroke-width:8.64"/>
	<text x="236.12" y="185.26" style="font-family:'Helvetica';font-weight:bold;font-size:60.02px;fill:#000000">Reported SARS-CoV-2 infection</text>
	<text x="236.12" y="311.61" style="font-family:'Helvetica';font-size:60.02px;fill:#000000"></text>
	<text x="236.12" y="437.96" style="font-family:'Helvetica';font-size:60.02px;fill:#000000"></text>
	<text x="236.12" y="564.44" style="font-family:'Helvetica';font-size:60.02px;fill:#000000"></text>
	<text x="236.12" y="690.79" style="font-family:'Helvetica';font-size:60.02px;fill:#000000"></text>
	<text x="236.12" y="817.27" style="font-family:'Helvetica';font-weight:bold;font-size:60.02px;fill:#000000">COVID-19 hospital admission</text>
	<text x="236.12" y="943.62" style="font-family:'Helvetica';font-size:60.02px;fill:#000000"></text>
	<text x="236.12" y="1069.98" style="font-family:'Helvetica';font-size:60.02px;fill:#000000"></text>
	<text x="236.12" y="1196.45" style="font-family:'Helvetica';font-size:60.02px;fill:#000000"></text>
	<text x="236.12" y="1322.81" style="font-family:'Helvetica';font-size:60.02px;fill:#000000"></text>
	<text x="236.12" y="1449.28" style="font-family:'Helvetica';font-weight:bold;font-size:60.02px;fill:#000000">COVID-19 ICU admission</text>
	<text x="236.12" y="1575.63" style="font-family:'Helvetica';font-size:60.02px;fill:#000000"></text>
	<text x="236.12" y="1702.11" style="font-family:'Helvetica';font-size:60.02px;fill:#000000"></text>
	<text x="236.12" y="1828.46" style="font-family:'Helvetica';font-size:60.02px;fill:#000000"></text>
	<text x="236.12" y="1954.82" style="font-family:'Helvetica';font-size:60.02px;fill:#000000"></text>
	<text x="236.12" y="2081.29" style="font-family:'Helvetica';font-weight:bold;font-size:60.02px;fill:#000000">COVID-19 death</text>
	<text x="236.12" y="2207.65" style="font-family:'Helvetica';font-size:60.02px;fill:#000000"></text>
	<text x="236.12" y="2334.12" style="font-family:'Helvetica';font-size:60.02px;fill:#000000"></text>
	<text x="236.12" y="2460.47" style="font-family:'Helvetica';font-size:60.02px;fill:#000000"></text>
	<text x="236.12" y="2586.83" style="font-family:'Helvetica';font-size:60.02px;fill:#000000"></text>
	<text x="369.27" y="311.61" style="font-family:'Helvetica';font-size:60.02px;fill:#000000">Only children aged 0-4 years</text>
	<text x="369.27" y="437.96" style="font-family:'Helvetica';font-size:60.02px;fill:#000000">Only children aged 5-11 years</text>
	<text x="369.27" y="564.44" style="font-family:'Helvetica';font-size:60.02px;fill:#000000">Only children aged ≥12 years</text>
	<text x="369.27" y="690.79" style="font-family:'Helvetica';font-size:60.02px;fill:#000000">Children in a least 2 of above age categories</text>
	<text x="369.27" y="943.62" style="font-family:'Helvetica';font-size:60.02px;fill:#000000">Only children aged 0-4 years</text>
	<text x="369.27" y="1069.98" style="font-family:'Helvetica';font-size:60.02px;fill:#000000">Only children aged 5-11 years</text>
	<text x="369.27" y="1196.45" style="font-family:'Helvetica';font-size:60.02px;fill:#000000">Only children aged ≥12 years</text>
	<text x="369.27" y="1322.81" style="font-family:'Helvetica';font-size:60.02px;fill:#000000">Children in a least 2 of above age categories</text>
	<text x="369.27" y="1575.63" style="font-family:'Helvetica';font-size:60.02px;fill:#000000">Only children aged 0-4 years</text>
	<text x="369.27" y="1702.11" style="font-family:'Helvetica';font-size:60.02px;fill:#000000">Only children aged 5-11 years</text>
	<text x="369.27" y="1828.46" style="font-family:'Helvetica';font-size:60.02px;fill:#000000">Only children aged ≥12 years</text>
	<text x="369.27" y="1954.82" style="font-family:'Helvetica';font-size:60.02px;fill:#000000">Children in a least 2 of above age categories</text>
	<text x="369.27" y="2207.65" style="font-family:'Helvetica';font-size:60.02px;fill:#000000">Only children aged 0-4 years</text>
	<text x="369.27" y="2334.12" style="font-family:'Helvetica';font-size:60.02px;fill:#000000">Only children aged 5-11 years</text>
	<text x="369.27" y="2460.47" style="font-family:'Helvetica';font-size:60.02px;fill:#000000">Only children aged ≥12 years</text>
	<text x="369.27" y="2586.83" style="font-family:'Helvetica';font-size:60.02px;fill:#000000">Children in a least 2 of above age categories</text>
	<text x="3357.83" y="311.61" style="font-family:'Helvetica';font-size:60.02px;fill:#000000">0.99 (0.82-1.20)</text>
	<text x="3357.83" y="437.96" style="font-family:'Helvetica';font-size:60.02px;fill:#000000">1.04 (0.89-1.21)</text>
	<text x="3357.83" y="564.44" style="font-family:'Helvetica';font-size:60.02px;fill:#000000">0.92 (0.80-1.06)</text>
	<text x="3357.83" y="690.79" style="font-family:'Helvetica';font-size:60.02px;fill:#000000">1.16 (1.02-1.33)</text>
	<text x="3357.83" y="943.62" style="font-family:'Helvetica';font-size:60.02px;fill:#000000">1.02 (0.78-1.34)</text>
	<text x="3357.83" y="1069.98" style="font-family:'Helvetica';font-size:60.02px;fill:#000000">1.00 (0.80-1.25)</text>
	<text x="3357.83" y="1196.45" style="font-family:'Helvetica';font-size:60.02px;fill:#000000">1.03 (0.86-1.25)</text>
	<text x="3357.83" y="1322.81" style="font-family:'Helvetica';font-size:60.02px;fill:#000000">1.20 (1.00-1.44)</text>
	<text x="3357.83" y="1575.63" style="font-family:'Helvetica';font-size:60.02px;fill:#000000">0.54 (0.20-1.45)</text>
	<text x="3357.83" y="1702.11" style="font-family:'Helvetica';font-size:60.02px;fill:#000000">1.56 (0.95-2.59)</text>
	<text x="3357.83" y="1828.46" style="font-family:'Helvetica';font-size:60.02px;fill:#000000">1.26 (0.75-2.11)</text>
	<text x="3357.83" y="1954.82" style="font-family:'Helvetica';font-size:60.02px;fill:#000000">0.85 (0.46-1.57)</text>
	<text x="3357.83" y="2207.65" style="font-family:'Helvetica';font-size:60.02px;fill:#000000">0.97 (0.69-1.35)</text>
	<text x="3357.83" y="2334.12" style="font-family:'Helvetica';font-size:60.02px;fill:#000000">0.74 (0.54-1.00)</text>
	<text x="3357.83" y="2460.47" style="font-family:'Helvetica';font-size:60.02px;fill:#000000">0.80 (0.62-1.04)</text>
	<text x="3357.83" y="2586.83" style="font-family:'Helvetica';font-size:60.02px;fill:#000000">0.94 (0.73-1.21)</text>
	<text x="3357.83" y="185.26" style="font-family:'Helvetica';font-size:60.02px;fill:#000000"></text>
	<text x="3357.83" y="311.61" style="font-family:'Helvetica';font-size:60.02px;fill:#000000"></text>
	<text x="3357.83" y="437.96" style="font-family:'Helvetica';font-size:60.02px;fill:#000000"></text>
	<text x="3357.83" y="564.44" style="font-family:'Helvetica';font-size:60.02px;fill:#000000"></text>
	<text x="3357.83" y="690.79" style="font-family:'Helvetica';font-size:60.02px;fill:#000000"></text>
	<text x="3357.83" y="817.27" style="font-family:'Helvetica';font-size:60.02px;fill:#000000"></text>
	<text x="3357.83" y="943.62" style="font-family:'Helvetica';font-size:60.02px;fill:#000000"></text>
	<text x="3357.83" y="1069.98" style="font-family:'Helvetica';font-size:60.02px;fill:#000000"></text>
	<text x="3357.83" y="1196.45" style="font-family:'Helvetica';font-size:60.02px;fill:#000000"></text>
	<text x="3357.83" y="1322.81" style="font-family:'Helvetica';font-size:60.02px;fill:#000000"></text>
	<text x="3357.83" y="1449.28" style="font-family:'Helvetica';font-size:60.02px;fill:#000000"></text>
	<text x="3357.83" y="1575.63" style="font-family:'Helvetica';font-size:60.02px;fill:#000000"></text>
	<text x="3357.83" y="1702.11" style="font-family:'Helvetica';font-size:60.02px;fill:#000000"></text>
	<text x="3357.83" y="1828.46" style="font-family:'Helvetica';font-size:60.02px;fill:#000000"></text>
	<text x="3357.83" y="1954.82" style="font-family:'Helvetica';font-size:60.02px;fill:#000000"></text>
	<text x="3357.83" y="2081.29" style="font-family:'Helvetica';font-size:60.02px;fill:#000000"></text>
	<text x="3357.83" y="2207.65" style="font-family:'Helvetica';font-size:60.02px;fill:#000000"></text>
	<text x="3357.83" y="2334.12" style="font-family:'Helvetica';font-size:60.02px;fill:#000000"></text>
	<text x="3357.83" y="2460.47" style="font-family:'Helvetica';font-size:60.02px;fill:#000000"></text>
	<text x="3357.83" y="2586.83" style="font-family:'Helvetica';font-size:60.02px;fill:#000000"></text>
	<text x="1480.67" y="2776.54" style="font-family:'Helvetica';font-size:60.02px;fill:#000000" text-anchor="middle">Lower risk in those living with children</text>
	<text x="3361.79" y="2776.54" style="font-family:'Helvetica';font-size:60.02px;fill:#000000" text-anchor="middle">Higher risk in those living with children</text>
	<line x1="130.80" y1="2629.15" x2="130.80" y2="100.86" style="stroke:#FFFFFF;stroke-width:5.76"/>
	<line x1="130.80" y1="2629.15" x2="3859.02" y2="2629.15" style="stroke:#000000;stroke-width:5.76"/>
	<line x1="2075.66" y1="2629.15" x2="2075.66" y2="2669.25" style="stroke:#000000;stroke-width:5.76"/>
	<text x="2075.66" y="2731.12" style="font-family:'Helvetica';font-size:60.02px;fill:#000000" text-anchor="middle">.5</text>
	<line x1="2555.44" y1="2629.15" x2="2555.44" y2="2669.25" style="stroke:#000000;stroke-width:5.76"/>
	<text x="2555.44" y="2731.12" style="font-family:'Helvetica';font-size:60.02px;fill:#000000" text-anchor="middle">1</text>
	<line x1="3035.22" y1="2629.15" x2="3035.22" y2="2669.25" style="stroke:#000000;stroke-width:5.76"/>
	<text x="3035.22" y="2731.12" style="font-family:'Helvetica';font-size:60.02px;fill:#000000" text-anchor="middle">2</text>
</svg>
